<?xml version="1.0" standalone="no"?>
<!DOCTYPE svg PUBLIC "-//W3C//DTD SVG 1.1//EN" "http://www.w3.org/Graphics/SVG/1.1/DTD/svg11.dtd" >
<svg xmlns="http://www.w3.org/2000/svg">
<metadata></metadata>
<defs>
<font id="vodafone_ltregular" horiz-adv-x="1026" >
<font-face units-per-em="2048" ascent="1638" descent="-410" />
<missing-glyph horiz-adv-x="419" />
<glyph horiz-adv-x="1945" />
<glyph horiz-adv-x="1945" />
<glyph unicode="&#xd;" horiz-adv-x="1024" />
<glyph unicode=" "  horiz-adv-x="419" />
<glyph unicode="&#x09;" horiz-adv-x="419" />
<glyph unicode="&#xa0;" horiz-adv-x="419" />
<glyph unicode="!" horiz-adv-x="342" d="M92 66q0 41 22.5 63.5t57.5 22.5t58.5 -23t23.5 -63q0 -41 -23.5 -65t-58.5 -24t-57.5 24t-22.5 65zM121 424v942h102v-942h-102z" />
<glyph unicode="&#x22;" horiz-adv-x="561" d="M104 760v606h97v-606h-97zM360 760v606h99v-606h-99z" />
<glyph unicode="#" horiz-adv-x="1132" d="M10 506v96h328v305h-328v94h328v365h92v-365h272v365h95v-365h325v-94h-325v-305h325v-96h-325v-354h-95v354h-272v-354h-92v354h-328zM430 602h272v305h-272v-305z" />
<glyph unicode="$" d="M102 141l68 84q47 -59 127 -102t166 -45v608q-106 43 -171 90t-100.5 96.5t-46 97.5t-8.5 93q0 76 25.5 135t71 99t104.5 62.5t125 24.5v252h90v-252q119 -4 201 -56t129 -118l-68 -65q-47 59 -111.5 99t-150.5 44v-520q88 -41 152.5 -81t106.5 -88t62.5 -109.5 t20.5 -143.5q0 -154 -88 -253t-254 -113v-254h-90v254q-66 2 -121 17t-100 38.5t-80 51.5t-60 54zM242 1077q0 -72 24.5 -120t58 -79.5t71.5 -49t67 -29.5v489q-104 -4 -162.5 -61.5t-58.5 -149.5zM553 78q111 10 173 78.5t62 185.5q2 63 -15 110.5t-50 83t-77 64.5t-93 53 v-575z" />
<glyph unicode="%" horiz-adv-x="1394" d="M57 57l1211 1319l63 -67l-1210 -1323zM63 1079q-2 70 25 127.5t69 96t91 59t92 16.5q94 2 160 -59q68 -59 92 -128t22 -112q0 -92 -47 -170q-47 -76 -109.5 -103.5t-117.5 -27.5q-59 0 -109.5 23.5t-87.5 64.5t-58.5 95.5t-21.5 117.5zM152 1079q0 -45 14 -84t38.5 -68.5 t58.5 -46t75 -16.5q51 0 87 24.5t58.5 58.5t31.5 71t9 61q0 76 -41 129q-39 53 -78.5 68.5t-66.5 15.5q-70 0 -115 -45q-47 -43 -59 -89t-12 -79zM784 287q-2 70 25 127t69 96t91 59.5t90 16.5q74 2 128 -33t88 -84t49 -100.5t13 -81.5q0 -92 -47 -170t-109.5 -104.5 t-121.5 -26.5q-57 0 -107.5 23.5t-87.5 64.5t-58.5 95t-21.5 118zM874 287q0 -43 14.5 -82t39 -69t58.5 -46t73 -16q47 -2 84 23.5t61.5 60.5t34.5 71.5t6 57.5q0 61 -22.5 103t-53 67.5t-61.5 36t-49 8.5q-53 0 -89 -25.5t-58.5 -61.5t-32 -72t-5.5 -56z" />
<glyph unicode="&#x26;" horiz-adv-x="1134" d="M51 350q0 147 79 256t214 185l62 34q-47 66 -88.5 142.5t-41.5 154.5q0 117 79 186.5t210 69.5q98 0 174 -45t121 -157l-74 -52q-41 92 -95 131t-126 39q-86 0 -136 -48t-50 -120q0 -74 43 -147q41 -70 74 -113l299 -446l215 373l71 -54l-225 -397l234 -342h-113 l-170 252q-76 -135 -171 -205t-224 -70q-88 0 -155 29t-113 80t-69.5 118.5t-23.5 145.5zM152 354q0 -59 17 -111.5t51 -91t83.5 -61t112.5 -22.5q100 0 180 67.5t147 192.5l-292 426l-56 -31q-113 -63 -178 -151.5t-65 -217.5z" />
<glyph unicode="'" horiz-adv-x="303" d="M104 760v606h95v-606h-95z" />
<glyph unicode="(" horiz-adv-x="520" d="M92 700q0 283 100.5 484.5t266.5 312.5l51 -65q-147 -117 -231 -303.5t-84 -428.5t85 -426t226 -301l-43 -73q-84 53 -152.5 134t-117 183t-75 225t-26.5 258z" />
<glyph unicode=")" horiz-adv-x="518" d="M10 1432l51 65q166 -111 266.5 -312.5t100.5 -484.5q0 -203 -59 -376q-57 -168 -143.5 -268.5t-168.5 -155.5l-43 73q141 117 226.5 301.5t85.5 425.5q0 242 -84 428.5t-232 303.5z" />
<glyph unicode="*" horiz-adv-x="798" d="M74 870l260 179l-260 184l45 72l239 -175v297h80v-297l244 173l43 -68l-260 -184l260 -183l-41 -71l-246 172v-312h-80v312l-241 -172z" />
<glyph unicode="+" d="M74 631v98h391v455h96v-455h389v-98h-389v-457h-96v457h-391z" />
<glyph unicode="," horiz-adv-x="323" d="M76 76q0 39 22.5 63.5t61.5 24.5q45 0 68.5 -34t23.5 -81q0 -72 -41 -138.5t-94 -109.5l-35 45q27 27 52.5 64t29.5 72q-37 0 -62.5 27.5t-25.5 66.5z" />
<glyph unicode="-" horiz-adv-x="598" d="M94 489v109h412v-109h-412z" />
<glyph unicode="." horiz-adv-x="329" d="M88 70q0 41 24.5 65.5t59.5 24.5t60.5 -24.5t25.5 -65.5q0 -43 -25.5 -68t-60.5 -25t-59.5 25t-24.5 68z" />
<glyph unicode="/" horiz-adv-x="921" d="M10 4l821 1548l80 -47l-819 -1552z" />
<glyph unicode="0" d="M76 674q0 127 25.5 253t78.5 226t136 162.5t198 62.5q160 0 264 -127q106 -125 140 -288q33 -152 32 -289q0 -205 -61 -379t-159.5 -249t-215.5 -75q-115 0 -198 62.5t-136 163t-78.5 225.5t-25.5 252zM186 676q0 -100 18.5 -208t58.5 -196t101.5 -145t149.5 -57 q121 0 197 112q80 113 104 252q25 141 25 242q0 172 -43 317q-43 147 -120 216t-163 69q-88 0 -149.5 -54.5t-101.5 -141.5t-58.5 -194.5t-18.5 -211.5z" />
<glyph unicode="1" d="M184 1087l363 265h98v-1352h-106v1225l-303 -217z" />
<glyph unicode="2" d="M111 1186q35 43 85 77.5t106 60.5t111.5 40t102.5 14q147 4 238 -67q45 -35 73.5 -74t44 -78t19.5 -74.5t4 -62.5q0 -135 -64 -217q-39 -47 -91 -99.5t-122 -109.5l-266 -225q-72 -59 -96.5 -121t-24.5 -152h674v-98h-784v90q0 55 7 100.5t25.5 84t48 75.5t72.5 78 l250 215q125 104 168 150q88 90 88 225q0 123 -70.5 192.5t-199.5 69.5q-109 2 -189.5 -49t-156.5 -127z" />
<glyph unicode="3" d="M74 115l49 98q66 -68 154 -105.5t186 -37.5q147 0 234 81.5t87 229.5q2 119 -61 203q-31 41 -68 66.5t-75.5 40t-77.5 18.5t-72 4q-68 0 -106 -6v88q27 45 77 105.5t123 137.5q141 152 226 213h-629v99h751v-119q-82 -53 -225 -197q-145 -145 -207 -237h31 q80 0 146.5 -19.5t116.5 -52.5t83 -76t47 -90q31 -96 31 -168q0 -147 -68 -248q-68 -100 -165 -136t-195 -36q-111 0 -207 29q-90 31 -129 63.5t-57 51.5z" />
<glyph unicode="4" d="M84 334v115l637 903h74v-920h141v-98h-141v-334h-101v334h-610zM180 432h514v731z" />
<glyph unicode="5" d="M98 100l45 101q53 -47 143.5 -88t198.5 -41q82 -4 142.5 27.5t99.5 81.5t56.5 112.5t17.5 122.5q0 139 -66 223q-31 43 -72.5 69.5t-88 43t-92.5 22.5t-87 6q-72 0 -129 -7t-86 -17v596h662v-99h-559v-387q53 4 85.5 7.5t45.5 3.5q166 0 286 -68q117 -63 162 -174 q45 -102 45 -219q0 -100 -30.5 -182t-87 -140.5t-134.5 -90.5t-170 -32q-102 0 -194 29q-88 27 -132 55.5t-61 44.5z" />
<glyph unicode="6" d="M119 522q0 190 57 350q57 166 139 261.5t174 148.5q68 41 150 63.5t168 22.5l22 -86q-100 -4 -187 -32.5t-159 -88.5q-92 -74 -150.5 -180.5t-82.5 -235.5q57 47 131 80t178 33q127 0 223 -72q51 -41 83 -89t49.5 -97t23.5 -95t6 -83q0 -156 -61 -262q-35 -59 -80 -95 t-92 -57.5t-91 -29t-77 -7.5q-102 0 -181 39t-133.5 112t-82 174t-27.5 226zM223 508q0 -94 18.5 -175t58.5 -140.5t99.5 -93t143.5 -33.5q135 0 217 96t82 256q2 100 -31 167.5t-80 107.5t-100 56.5t-94 14.5q-92 0 -173 -41t-133 -90q-4 -25 -6 -55.5t-2 -69.5z" />
<glyph unicode="7" d="M113 1253v99h815v-80q-86 -113 -153.5 -227.5t-125.5 -237.5q-59 -123 -99 -240.5t-64.5 -222t-38 -193t-17.5 -151.5h-108q37 358 162.5 677.5t318.5 575.5h-690z" />
<glyph unicode="8" d="M98 358q0 143 70 226.5t174 122.5q-57 18 -100 54t-72 81t-42 94t-9 92q-2 90 34.5 156.5t95 110.5t128 64.5t135.5 18.5q139 2 236 -65q49 -33 79.5 -71t49 -76t24.5 -73.5t4 -64.5q2 -88 -41 -166q-41 -78 -96 -112.5t-86 -42.5q104 -39 174 -122t70 -227 q2 -137 -74 -235t-172 -125q-96 -31 -168 -27q-98 0 -175 29t-130 80t-81 122.5t-28 155.5zM201 360q0 -147 85 -219.5t226 -72.5t226 72.5t85 219.5q0 98 -59 175q-31 37 -64.5 61.5t-67.5 38.5t-64.5 20.5t-55.5 6.5q-119 0 -197 -64q-39 -31 -62.5 -63.5t-35.5 -64.5 t-15 -60.5t-1 -49.5zM221 1030q0 -129 81 -202.5t210 -73.5q78 0 133 24.5t91 64.5t52.5 89t16.5 98q0 117 -79 186.5t-214 69.5q-131 0 -211 -69.5t-80 -186.5z" />
<glyph unicode="9" d="M92 940q0 156 72 264q72 111 164 144q94 33 166 30q162 4 264 -94q104 -94 135 -225q31 -133 29 -217q2 -119 -21.5 -227.5t-63.5 -200.5t-92.5 -163t-107.5 -110q-88 -74 -201 -119t-260 -45l19 97q47 0 135 16q78 16 132 44t91 63q113 100 158 188q23 45 45 102.5 t45 128.5q-49 -39 -133 -74.5t-183 -35.5q-90 0 -162.5 32.5t-124 91t-79 137.5t-27.5 173zM195 944q0 -156 80 -250t223 -94q98 0 176 42t133 89q6 49 6 113q2 160 -53 266q-51 106 -131 141q-82 35 -135 33q-137 0 -218 -93t-81 -247z" />
<glyph unicode=":" horiz-adv-x="329" d="M98 70q0 41 24.5 65.5t59.5 24.5t60.5 -24.5t25.5 -65.5q0 -43 -25.5 -68t-60.5 -25t-59.5 25t-24.5 68zM98 895q0 41 24.5 65.5t59.5 24.5t60.5 -24.5t25.5 -65.5q0 -43 -25.5 -68t-60.5 -25t-59.5 25t-24.5 68z" />
<glyph unicode=";" horiz-adv-x="335" d="M88 895q0 41 24.5 65.5t59.5 24.5t60.5 -24.5t25.5 -65.5q0 -43 -25.5 -68t-60.5 -25t-59.5 25t-24.5 68zM99 76q0 39 22.5 63.5t61.5 24.5q45 0 68.5 -34t23.5 -81q0 -72 -41 -138.5t-94 -109.5l-35 45q27 27 52.5 64t29.5 72q-37 0 -62.5 27.5t-25.5 66.5z" />
<glyph unicode="&#x3c;" d="M113 637v90l766 317l36 -94l-649 -266l662 -276l-37 -99z" />
<glyph unicode="=" d="M74 401v99h878v-99h-878zM74 776v98h878v-98h-878z" />
<glyph unicode="&#x3e;" d="M113 408l659 276l-647 266l39 94l764 -317v-90l-781 -328z" />
<glyph unicode="?" horiz-adv-x="698" d="M18 1188q53 78 138.5 134t195.5 56q160 0 246 -84t86 -231q0 -100 -48 -188.5t-128 -176.5q-86 -98 -102 -139q-23 -51 -23 -113v-53h-98v62q0 92 41 157.5t94 128.5q43 49 72.5 92.5t48 81t26.5 74.5t8 78q0 104 -61 159.5t-166 55.5q-92 0 -153.5 -47t-110.5 -113z M256 66q0 41 22.5 63.5t57.5 22.5t58.5 -23t23.5 -63q0 -41 -23.5 -65t-58.5 -24t-57.5 24t-22.5 65z" />
<glyph unicode="@" horiz-adv-x="1472" d="M98 479q0 197 44 354.5t130 269t213 171t295 59.5q190 0 310 -76q123 -80 161 -180q41 -104 41 -186v-850h-98v98q-49 -41 -117.5 -70.5t-154.5 -29.5q-74 0 -137.5 30.5t-109.5 86t-73 134.5t-27 175q-4 104 29 183t85 131t114.5 77t118.5 21q92 0 155.5 -25t116.5 -59 v77q0 86 -25.5 155t-78.5 112q-57 49 -133 76.5t-177 27.5q-219 0 -356 -125t-180 -297t-43 -340q0 -195 80 -366q80 -170 245.5 -255t376.5 -85q205 0 438 88l29 -92q-66 -31 -181.5 -61t-297.5 -30q-166 0 -290 39t-212 104.5t-144.5 149.5t-89 172t-45 176.5t-12.5 159.5 zM682 463q0 -66 16.5 -125t47 -104.5t76 -72t104.5 -26.5q86 0 150.5 33t115.5 74v448q-53 37 -113.5 62.5t-146.5 25.5q-123 0 -186.5 -87t-63.5 -228z" />
<glyph unicode="A" horiz-adv-x="1091" d="M10 0l484 1366h98l489 -1366h-112l-160 438h-533l-155 -438h-111zM309 541h467l-235 696z" />
<glyph unicode="B" horiz-adv-x="1024" d="M156 0v1366h352q186 0 282.5 -83t96.5 -257q0 -252 -250 -301q141 -10 228 -94t87 -252q0 -90 -27.5 -159.5t-76.5 -119t-116.5 -75t-149.5 -25.5h-426zM262 100h311q129 0 198 76t69 205q0 154 -89 221.5t-249 67.5h-240v-570zM262 770h234q137 0 208.5 70.5t71.5 187.5 q0 123 -68.5 180.5t-197.5 57.5h-248v-496z" />
<glyph unicode="C" horiz-adv-x="1110" d="M102 678q0 174 40 307t111 223t167 137.5t209 47.5q143 0 249.5 -73t161.5 -190l-86 -67q-35 68 -80 112t-91 70.5t-87 36.5q-34 8 -57 8h-8q-139 0 -242 -90q-98 -92 -137 -233q-37 -141 -37 -291q0 -133 29.5 -243.5t86 -189.5t136.5 -123t180 -44q111 0 193 47 t147 133l62 -86q-35 -43 -103 -98q-55 -43 -140 -70t-167 -27q-127 0 -226.5 49.5t-169 140.5t-105.5 221t-36 292z" />
<glyph unicode="D" horiz-adv-x="1193" d="M156 0v1366h319q86 0 164 -14.5t143 -48.5q147 -72 230.5 -221.5t83.5 -379.5q0 -285 -106.5 -451.5t-299.5 -221.5q-102 -29 -215 -29h-319zM262 100h195q53 0 109.5 6.5t103.5 24.5q143 53 229 190.5t86 372.5q0 180 -55.5 302t-159.5 190q-61 41 -140 60.5t-165 19.5 h-203v-1166z" />
<glyph unicode="E" horiz-adv-x="974" d="M156 0v1366h729v-100h-625v-492h453v-100h-453v-574h662v-100h-766z" />
<glyph unicode="F" horiz-adv-x="880" d="M156 0v1366h714v-100h-610v-512h451v-101h-451v-653h-104z" />
<glyph unicode="G" horiz-adv-x="1163" d="M102 678q0 248 91 424q90 174 208 231q125 59 234 60h12q79 0 141 -25q66 -27 117 -66.5t85 -86t52 -80.5l-79 -64q-49 100 -138.5 160.5t-189.5 60.5q-86 0 -162 -39t-133 -115.5t-91 -192.5t-34 -269q0 -137 32 -249t89 -190.5t138 -121.5t179 -43q104 0 175 15t116 34 v428h-244v100h351v-600q-66 -29 -171.5 -52.5t-228.5 -23.5t-223 46.5t-173 135.5t-113 220t-40 303z" />
<glyph unicode="H" horiz-adv-x="1230" d="M156 0v1366h106v-608h709v608h104v-1366h-104v655h-709v-655h-106z" />
<glyph unicode="I" horiz-adv-x="417" d="M156 0v1366h106v-1366h-106z" />
<glyph unicode="J" horiz-adv-x="722" d="M25 55l36 97q14 -18 64 -41q51 -20 90 -28.5t80 -8.5q104 0 142 55t38 162v1075h107v-1092q0 -106 -27 -157q-29 -61 -94.5 -100.5t-169.5 -39.5q-45 0 -88 7.5t-79 19.5t-61.5 25.5t-37.5 25.5z" />
<glyph unicode="K" horiz-adv-x="1062" d="M156 0v1366h106v-614h215q57 0 97 35.5t83 132.5l199 446h115l-207 -465q-33 -72 -64.5 -119t-72.5 -63q57 -16 89 -50t60 -106l225 -563h-114l-172 422q-51 119 -76 158q-23 41 -57.5 57t-79.5 16h-240v-653h-106z" />
<glyph unicode="L" horiz-adv-x="921" d="M156 0v1366h106v-1266h629v-100h-735z" />
<glyph unicode="M" horiz-adv-x="1429" d="M135 0l62 1366h137l405 -1239l377 1239h131l62 -1366h-103l-51 1149l-364 -1172h-109l-393 1188l-49 -1165h-105z" />
<glyph unicode="N" horiz-adv-x="1255" d="M156 0v1366h112l727 -1151v1151h105v-1366h-92l-748 1178v-1178h-104z" />
<glyph unicode="O" horiz-adv-x="1263" d="M102 684q0 215 76 385q37 94 94.5 157.5t121.5 101.5t128 52q56 13 99 13h12q193 0 315 -123q125 -119 168 -287q45 -160 45 -299q0 -225 -76 -391q-41 -96 -98 -158.5t-121 -99.5q-62 -37 -124 -51q-54 -12 -97 -11h-12q-135 0 -234.5 60.5t-166 160t-98.5 227.5 t-32 263zM213 684q0 -170 59 -330q61 -154 158 -217t203 -63q147 0 248 106q104 111 137 252q33 133 33 252q0 182 -58 322q-55 147 -152.5 216.5t-207.5 69.5q-109 0 -188.5 -53t-131 -140t-76 -195.5t-24.5 -219.5z" />
<glyph unicode="P" horiz-adv-x="1032" d="M156 0v1366h405q199 0 304.5 -101.5t105.5 -299.5q0 -96 -31 -170t-85 -123t-129 -74t-163 -25h-301v-573h-106zM262 674h301q135 0 214 78.5t79 214.5q0 141 -72.5 220t-222.5 79h-299v-592z" />
<glyph unicode="Q" horiz-adv-x="1263" d="M102 684q0 215 76 385q37 94 94.5 157.5t122 101.5t127.5 52q56 13 99 13h12q193 0 315 -123q125 -119 168 -287q45 -160 45 -299q0 -129 -27.5 -248t-86.5 -217q53 -41 109 -98.5t114 -128.5l-74 -60q-86 106 -205 209q-63 -78 -152 -123t-206 -45q-135 0 -234.5 60.5 t-166 160t-98.5 227.5t-32 263zM213 684q0 -170 59 -330q61 -154 158 -217t203 -63q86 0 153.5 33.5t116.5 93.5q-96 55 -246 104l31 92q156 -53 268 -116q47 86 71 191.5t24 211.5q0 182 -58 322q-55 147 -152.5 216.5t-207.5 69.5q-109 0 -188.5 -53t-131 -140t-76 -195.5 t-24.5 -219.5z" />
<glyph unicode="R" horiz-adv-x="1091" d="M156 0v1366h409q199 0 301.5 -95t102.5 -276v-11q-1 -75 -25 -131q-26 -60 -63 -101t-76 -62.5t-62 -25.5q66 -20 94.5 -79t55.5 -151q8 -39 61 -223l56 -211h-113l-57 213q-72 240 -86 283q-20 57 -61.5 89.5t-102.5 32.5h-328v-618h-106zM262 719h295q147 0 223 67.5 t76 208.5q0 129 -74.5 200t-218.5 71h-301v-547z" />
<glyph unicode="S" horiz-adv-x="983" d="M66 147l59 99q29 -31 68.5 -61.5t88 -55.5t100.5 -40t105 -15q11 -1 23 -1q62 -1 110 19q58 22 97 60t57 88q17 46 17 94v10q0 61 -17.5 108.5t-52.5 84t-89 66.5t-128 59l-139 49q-123 43 -196 123.5t-73 209.5q0 113 62 197q63 86 154 119t177 33q143 0 242.5 -53.5 t159.5 -127.5l-66 -79q-49 61 -130 110t-197 49h-8q-118 0 -195 -58q-80 -60 -82 -177q0 -98 58.5 -155.5t152.5 -92.5l133 -49q98 -35 163.5 -76t105.5 -90t57.5 -107.5t17.5 -126.5q0 -193 -112.5 -290t-305.5 -97q-94 2 -202 41q-102 37 -150.5 75t-64.5 58z" />
<glyph unicode="T" horiz-adv-x="931" d="M10 1266v100h912v-100h-404v-1266h-106v1266h-402z" />
<glyph unicode="U" horiz-adv-x="1210" d="M141 455v911h105v-881q0 -186 92 -297.5t266 -111.5t267.5 108.5t93.5 300.5v881h106v-911q0 -117 -37 -206t-99.5 -150.5t-147.5 -93.5t-181 -32q-98 0 -183 32t-147.5 93.5t-98.5 150.5t-36 206z" />
<glyph unicode="V" horiz-adv-x="1067" d="M10 1366h119l401 -1221l418 1221h109l-477 -1366h-107z" />
<glyph unicode="W" horiz-adv-x="1470" d="M20 1366h109l258 -1139l297 1139h100l312 -1145l247 1145h107l-305 -1366h-92l-320 1159l-313 -1159h-90z" />
<glyph unicode="X" horiz-adv-x="952" d="M10 0l402 709l-367 657h125l305 -567l307 567h121l-366 -651l405 -715h-129l-340 627l-344 -627h-119z" />
<glyph unicode="Y" horiz-adv-x="1021" d="M10 1366h121l375 -604l389 604h117l-455 -707v-659h-106v657z" />
<glyph unicode="Z" horiz-adv-x="1060" d="M86 0v104l762 1162h-729v100h835v-113l-755 -1153h784v-100h-897z" />
<glyph unicode="[" horiz-adv-x="397" d="M143 -293v1800h244v-90h-147v-1618h147v-92h-244z" />
<glyph unicode="\" horiz-adv-x="915" d="M10 1505l84 49l811 -1538l-82 -53z" />
<glyph unicode="]" horiz-adv-x="397" d="M10 -201h148v1618h-148v90h246v-1800h-246v92z" />
<glyph unicode="^" horiz-adv-x="974" d="M125 649l315 721h90l322 -706l-90 -41l-277 616l-272 -629z" />
<glyph unicode="_" horiz-adv-x="999" d="M0 -307h1024v-144h-1024v144z" />
<glyph unicode="`" horiz-adv-x="593" d="M10 1376l76 84l317 -284l-51 -60z" />
<glyph unicode="a" horiz-adv-x="897" d="M94 272q0 143 103 230q100 88 233 108q131 20 240 25v39q0 115 -49 174q-55 63 -162 63q-82 0 -148.5 -32.5t-113.5 -67.5l-37 82q16 14 47 32.5t70.5 36t87 28.5t98.5 11q156 0 235 -90q72 -84 72 -237v-674h-90l-6 86q-43 -45 -111 -77t-162 -32q-66 0 -122 19.5 t-97 57.5t-64.5 92.5t-23.5 125.5zM199 270q0 -59 22.5 -99t56 -64.5t71.5 -33.5q26 -6 48 -6q10 0 19 1q78 0 143.5 34.5t110.5 83.5v359q-242 -6 -356.5 -72.5t-114.5 -202.5z" />
<glyph unicode="b" horiz-adv-x="999" d="M141 41v1325h101v-436q43 27 104.5 49t140.5 22h6q146 0 246 -90q102 -94 133 -209q31 -110 31 -198v-10q0 -119 -34.5 -214.5t-95 -163t-142.5 -103.5t-176 -36q-98 0 -179 19.5t-135 44.5zM242 106q45 -18 98 -28t96 -10h9q88 0 156 38q71 40 117 103t68 139 q18 64 18 125q0 11 -1 23q0 135 -55 237q-53 102 -131 139t-150 37q-68 0 -124 -22.5t-101 -57.5v-723z" />
<glyph unicode="c" horiz-adv-x="897" d="M96 487q0 186 68 308q37 63 82 104t90 63.5t88 30.5t76 8h8q88 0 164 -43q80 -45 117.5 -93t44.5 -68l-74 -52q-53 82 -110.5 124t-149.5 42q-98 0 -174 -69q-76 -70 -101.5 -165t-25.5 -188q0 -96 22.5 -172.5t65.5 -132t102.5 -85t132.5 -29.5q76 0 137.5 26.5 t126.5 93.5l39 -88q-43 -45 -120.5 -85t-190.5 -40q-90 0 -167 34t-132 99.5t-87 160t-32 216.5z" />
<glyph unicode="d" horiz-adv-x="1003" d="M96 492q0 111 31 203.5t86 161.5t134 106.5t177 37.5q86 0 143.5 -20t92.5 -43v428h102v-1366h-92l-10 86q-45 -47 -109.5 -78t-150.5 -31h-9q-103 1 -177 47q-78 48 -128 124q-50 74 -72 166q-19 78 -19 152q0 13 1 26zM197 487q0 -190 81.5 -304.5t233.5 -114.5 q78 0 141.5 36.5t106.5 90.5v639q-33 29 -93.5 53t-129.5 24h-8q-85 0 -148 -39q-66 -41 -108 -104t-61 -139q-16 -63 -16 -119q0 -12 1 -23z" />
<glyph unicode="e" horiz-adv-x="958" d="M96 489q0 174 62 295q63 123 156.5 170t181.5 47h6q143 0 235 -94q92 -92 121 -209q27 -109 27 -192h-688q0 -211 82.5 -324.5t244.5 -113.5q174 0 293 125l31 -93q-27 -27 -72 -55q-39 -25 -111.5 -46.5t-142.5 -21.5q-205 0 -315.5 135.5t-110.5 376.5zM205 596h565 q-6 111 -55 188q-49 78 -109.5 102.5t-109.5 24.5q-111 0 -189.5 -74.5t-101.5 -240.5z" />
<glyph unicode="f" horiz-adv-x="526" d="M45 887v90h139v110q0 158 70 234q66 72 178 72q61 0 105.5 -13.5t68.5 -25.5l-22 -86q-25 12 -65 23.5t-87 11.5q-68 0 -102 -41q-45 -51 -45 -181v-104h215v-90h-215v-887h-103v887h-137z" />
<glyph unicode="g" horiz-adv-x="972" d="M100 485q0 166 72 293q39 70 92 115t109.5 69.5t107.5 33.5q38 6 68 6q10 0 20 -1q92 0 170 -12t127 -24v-1010q0 -162 -94 -261.5t-299 -99.5q-94 0 -203 29q-47 14 -77.5 25.5t-45.5 21.5l31 94q45 -29 123 -54t176 -25q147 0 217 70.5t70 224.5v69 q-39 -27 -102.5 -49.5t-149.5 -22.5q-88 0 -163 35t-130 99.5t-87 159t-32 214.5zM203 481q0 -102 26.5 -179t72.5 -129t105.5 -78.5t127.5 -26.5q72 0 133 27.5t96 60.5v731q-35 10 -83 17t-108 7q-74 0 -141 -28.5t-118.5 -84t-81 -135t-29.5 -182.5z" />
<glyph unicode="h" horiz-adv-x="1013" d="M141 0v1366h101v-475q53 43 127.5 76.5t173.5 33.5q135 0 215 -55t110 -160q18 -66 19 -176v-610h-103v604q0 100 -18 154q-53 151 -236 151h-2q-86 0 -156.5 -35.5t-129.5 -82.5v-791h-101z" />
<glyph unicode="i" horiz-adv-x="382" d="M117 1266q0 37 21.5 58.5t51.5 21.5q31 0 52.5 -21.5t21.5 -58.5q0 -41 -21.5 -61.5t-52.5 -20.5t-52 20.5t-21 61.5zM141 0v977h101v-977h-101z" />
<glyph unicode="j" horiz-adv-x="382" d="M-4 -317q82 55 113.5 126.5t31.5 184.5v983h101v-983q0 -152 -51.5 -243t-153.5 -152zM123 1266q0 37 21.5 58.5t52.5 21.5t52 -21.5t21 -58.5q0 -41 -21 -61.5t-52 -20.5t-52.5 20.5t-21.5 61.5z" />
<glyph unicode="k" horiz-adv-x="899" d="M141 0v1366h101v-772h159q59 0 102.5 39t86.5 137l90 207h108l-102 -225q-33 -72 -67.5 -121t-75.5 -66q57 -16 91 -48t62 -103l164 -414h-106l-117 289q-27 57 -44.5 94t-27.5 53q-18 33 -57 49.5t-82 16.5h-184v-502h-101z" />
<glyph unicode="l" horiz-adv-x="448" d="M133 114q-1 16 -1 30t1 24v1198h100v-1173q0 -72 15.5 -102t68.5 -30q41 0 103 31l18 -82q-27 -14 -63.5 -23.5t-71.5 -9.5h-11q-58 1 -90 21q-34 22 -50.5 53t-18.5 63z" />
<glyph unicode="m" horiz-adv-x="1550" d="M141 0v977h92l7 -92q47 39 120.5 77.5t171.5 38.5q168 0 246 -116q53 47 131 81.5t183 34.5q174 0 253.5 -98t79.5 -285v-618h-104v627q0 137 -61.5 208.5t-178.5 71.5q-86 0 -152.5 -32.5t-113.5 -73.5q12 -31 20.5 -75t8.5 -97v-629h-103v637v13q-1 71 -21 119 q-22 52 -56.5 83t-75.5 43t-74 12q-76 0 -146.5 -38t-125.5 -89v-780h-101z" />
<glyph unicode="n" horiz-adv-x="1013" d="M141 0v977h90l11 -92q53 47 127.5 81.5t173.5 34.5q137 0 217 -54t108 -161q20 -61 21 -176v-610h-103v604q0 100 -18 154q-53 151 -236 151h-2q-88 0 -159.5 -36.5t-128.5 -90.5v-782h-101z" />
<glyph unicode="o" horiz-adv-x="1017" d="M96 496q0 152 60 276q59 123 153 176t199 53q143 0 246 -90q51 -43 84.5 -101t53 -116.5t26 -112t6.5 -89.5q0 -162 -64 -287q-61 -123 -154.5 -175.5t-197.5 -52.5q-147 0 -248 93q-90 80 -127 193.5t-37 232.5zM197 496q0 -80 19.5 -157t58 -137.5t97 -97t136.5 -36.5 h14q80 0 136 42q62 46 98 112q37 68 52 142q13 66 13 117v13v23q-1 90 -29 163q-32 82 -81 135t-105 79q-41 19 -75 19q-12 0 -23 -2q-113 0 -191 -77q-72 -72 -96 -159t-24 -179z" />
<glyph unicode="p" horiz-adv-x="999" d="M141 -395v1372h90l11 -84q47 43 112.5 75.5t157.5 32.5q135 0 231 -79q51 -43 82 -98.5t48.5 -114t23.5 -113.5t6 -98q0 -176 -69 -301q-41 -74 -91.5 -118t-101.5 -66.5t-98 -29t-82 -6.5q-72 0 -126 16.5t-93 39.5v-428h-101zM242 137q37 -29 89 -49t120 -20 q160 0 255 112.5t95 311.5v11q0 143 -49 238q-25 51 -57.5 85t-67.5 52.5t-70 25.5t-65 7q-78 0 -140.5 -36.5t-109.5 -83.5v-654z" />
<glyph unicode="q" horiz-adv-x="1003" d="M96 485q0 166 72 293q39 70 92 115t109.5 69.5t107.5 33.5q38 6 68 6q10 0 20 -1q92 0 170 -12t127 -24v-1360h-102v444q-39 -27 -102.5 -49.5t-149.5 -22.5q-88 0 -163 35t-130 99.5t-87 159t-32 214.5zM199 481q0 -102 26.5 -179t72.5 -129t105 -78.5t127 -26.5 q72 0 133.5 27.5t96.5 60.5v731q-35 10 -83 17t-108 7q-74 0 -141.5 -28.5t-118.5 -84t-80.5 -135t-29.5 -182.5z" />
<glyph unicode="r" horiz-adv-x="598" d="M141 0v977h88l9 -100q23 23 50 43t62 41q69 38 120 38h7q55 0 111 -14l-15 -98q-35 14 -86 14q-66 0 -128 -38t-117 -93v-770h-101z" />
<glyph unicode="s" horiz-adv-x="772" d="M84 84l39 92q35 -35 102.5 -71.5t159.5 -36.5q104 0 160.5 46t56.5 132t-53 139t-195 107q-133 47 -190.5 107t-57.5 163v8q0 58 29 102q31 46 77 76q46 28 97 42q42 11 75 12q7 0 15 -1q104 0 180 -36.5t115 -77.5l-43 -80q-59 51 -120.5 78.5t-139.5 27.5 q-92 0 -137 -41t-45 -104q0 -37 11 -63.5t38 -50t73 -44t113 -45.5q129 -47 195 -115.5t66 -195.5v-9q0 -68 -29 -119q-31 -54 -79 -88q-47 -34 -105 -50q-46 -12 -87 -12q-10 0 -20 1q-121 0 -194.5 37t-106.5 70z" />
<glyph unicode="t" horiz-adv-x="595" d="M43 887v90h160v260h100v-260h244v-90h-244v-680q0 -78 29.5 -108.5t83.5 -30.5q49 0 119 45l40 -76q-29 -23 -67.5 -41.5t-110.5 -18.5q-135 0 -176 109q-18 43 -18 113v688h-160z" />
<glyph unicode="u" horiz-adv-x="1011" d="M125 362v615h100v-610q0 -104 21 -152q29 -78 87 -112.5t150 -34.5q88 0 158 36.5t129 90.5v782h100v-977h-92l-8 92q-53 -47 -125 -82t-176 -35q-258 0 -324 213q-20 61 -20 174z" />
<glyph unicode="v" horiz-adv-x="845" d="M10 977h111l305 -848l305 848h105l-357 -977h-108z" />
<glyph unicode="w" horiz-adv-x="1286" d="M10 977h111l231 -840l246 840h90l246 -836l235 836h107l-293 -977h-104l-238 805l-244 -805h-102z" />
<glyph unicode="x" horiz-adv-x="759" d="M10 0l316 500l-299 477h112l242 -393l244 393h108l-299 -475l316 -502h-111l-258 418l-260 -418h-111z" />
<glyph unicode="y" horiz-adv-x="917" d="M-20 -303h16q129 0 237.5 73.5t165.5 202.5l-381 1004h113l334 -897q86 180 172 411.5t154 485.5h106q-72 -283 -157 -498t-162 -383q-90 -186 -160 -280q-72 -98 -184.5 -153.5t-241.5 -55.5z" />
<glyph unicode="z" horiz-adv-x="872" d="M84 0v106l594 781h-572v90h674v-109l-594 -778h609v-90h-711z" />
<glyph unicode="{" horiz-adv-x="452" d="M39 643v78q84 14 122 60t38 163v307q-2 80 22.5 129.5t59 76t73.5 34.5t68 6l10 -78q-82 -4 -106.5 -49t-24.5 -137v-289q0 -113 -32.5 -173t-121.5 -89q88 -29 121 -89.5t33 -172.5v-289q0 -92 24.5 -137t106.5 -49l-10 -78q-121 0 -172 70.5t-51 175.5v307 q0 117 -38 163t-122 60z" />
<glyph unicode="|" horiz-adv-x="382" d="M143 -152v1663h97v-1663h-97z" />
<glyph unicode="}" horiz-adv-x="452" d="M20 -55q82 4 107 49t25 137v289q0 113 32.5 173t120.5 89q-88 29 -120.5 89t-32.5 173v289q0 92 -25 137t-107 49l11 78q70 0 112.5 -25.5t67.5 -62.5t34 -80t9 -78v-307q0 -117 38 -163t122 -60v-78q-84 -14 -122 -60t-38 -163v-307q0 -76 -21.5 -123t-53.5 -75 t-71.5 -38t-76.5 -10z" />
<glyph unicode="~" horiz-adv-x="843" d="M8 1075q16 123 81 187.5t175 64.5q61 0 106.5 -23.5t82.5 -52.5q106 -88 157 -88q66 0 96.5 47t38.5 119h91q-4 -84 -36 -137t-71 -82t-75 -38t-50 -3q-53 0 -101 29.5t-102 70.5q-86 68 -141 68q-78 0 -117 -49t-49 -113h-86z" />
<glyph unicode="&#xa1;" horiz-adv-x="342" d="M96 903q0 41 22.5 64.5t57.5 23.5t58.5 -23.5t23.5 -64.5t-23.5 -63.5t-58.5 -22.5t-57.5 22.5t-22.5 63.5zM125 -397v942h102v-942h-102z" />
<glyph unicode="&#xa2;" d="M195 690q0 121 49 211q51 90 120.5 126t133.5 46v293h77v-291q76 -4 135.5 -34.5t94.5 -65.5l-62 -70q-31 31 -71.5 51.5t-96.5 24.5v-598q98 10 170 82l58 -72q-39 -43 -101.5 -72.5t-126.5 -33.5v-295h-77v297q-133 23 -218 123t-85 278zM297 690q0 -141 54.5 -214 t146.5 -91v594q-86 -12 -143.5 -86t-57.5 -203z" />
<glyph unicode="&#xa3;" d="M96 535v96h131v340q0 199 90.5 303t255.5 104q111 2 197 -55t133 -135l-80 -66q-49 76 -103 117t-145 41q-240 0 -239 -317v-332h426v-96h-426v-437h569v-98h-678v535h-131z" />
<glyph unicode="&#xa4;" horiz-adv-x="1320" d="M68 123l299 342q-51 78 -75 149.5t-24 143.5t21.5 139.5t68.5 144.5l-290 328l51 51l284 -325q72 59 136.5 84.5t130.5 25.5t126 -23.5t130 -78.5l274 317l53 -51l-280 -315q53 -80 75.5 -150.5t22.5 -146.5q0 -78 -24.5 -152t-81.5 -153l288 -332l-43 -45l-288 330 q-72 -51 -131.5 -74t-120.5 -23q-127 0 -258 105l-303 -338zM332 756q0 -78 26.5 -147.5t72.5 -121t107.5 -81t131.5 -29.5q104 0 186 63q86 66 119 152t33 164q0 121 -58 209q-55 92 -133 132t-147 40q-104 0 -189 -66q-82 -63 -115.5 -149t-33.5 -166z" />
<glyph unicode="&#xa5;" d="M51 1350h119l328 -605l348 605h112l-299 -510h187v-97h-240l-57 -96v-106h295v-97h-295v-444h-107v444h-297v97h297v104l-55 98h-242v97h191z" />
<glyph unicode="&#xa6;" horiz-adv-x="382" d="M143 -152v566h97v-566h-97zM143 946v565h97v-565h-97z" />
<glyph unicode="&#xa7;" horiz-adv-x="819" d="M119 573q0 117 69.5 190t173.5 103q-86 72 -134 154t-42 154q0 104 69 163.5t191 59.5q92 0 150.5 -32t93.5 -73l-53 -73q-33 39 -81 64.5t-114 25.5q-160 0 -159 -138q0 -74 53 -138t158 -156q135 -125 180 -193q47 -66 47 -168q2 -59 -23.5 -108.5t-62.5 -85t-74 -56 t-55 -22.5q90 -74 131 -139.5t41 -155.5q2 -63 -26.5 -110.5t-71.5 -79t-95.5 -46t-95.5 -12.5q-92 0 -155.5 27.5t-110.5 70.5l51 86q43 -45 96.5 -69.5t112.5 -24.5q92 0 142 41t50 119q0 74 -53 139q-27 33 -75 75t-117 95q-131 94 -170 160q-41 70 -41 153zM219 575 q0 -76 38 -120.5t89 -85.5l88 -72q78 29 133.5 84t55.5 135q0 61 -41 127q-20 29 -59.5 70t-98.5 94q-92 -23 -148.5 -81t-56.5 -151z" />
<glyph unicode="&#xa8;" horiz-adv-x="593" d="M47 1313q0 37 21.5 58.5t52.5 21.5t52.5 -21.5t21.5 -58.5q0 -41 -21.5 -61.5t-52.5 -20.5t-52.5 20.5t-21.5 61.5zM397 1313q0 37 21.5 58.5t52.5 21.5t52.5 -21.5t21.5 -58.5q0 -41 -21.5 -61.5t-52.5 -20.5t-52.5 20.5t-21.5 61.5z" />
<glyph unicode="&#xa9;" horiz-adv-x="1609" d="M94 608q0 154 48 292t140.5 242.5t224.5 166t298 61.5q233 0 409 -127q172 -125 236 -303q66 -184 66 -332q0 -154 -48.5 -293t-140.5 -243.5t-224 -167t-298 -62.5t-298 62.5t-224.5 167t-140.5 244t-48 292.5zM188 608q0 -131 42 -254t121 -217t194 -151.5t260 -57.5 q203 0 354 115q152 119 207 276q55 156 55 289q0 199 -92 365q-92 170 -235 239q-145 74 -289 74q-145 0 -260 -56t-194 -150.5t-121 -217.5t-42 -254zM457 604q0 172 59 281q33 59 75 97t84 58.5t81 26.5t63 4q104 0 171 -49t102 -111l-74 -43q-33 53 -77 86t-126 33 q-117 0 -190.5 -98t-73.5 -285q0 -180 75.5 -276.5t192.5 -96.5q72 0 122 34t85 89l70 -51q-43 -70 -109 -113t-170 -43q-74 0 -139.5 27t-114.5 83t-77.5 142t-28.5 205z" />
<glyph unicode="&#xaa;" horiz-adv-x="641" d="M68 969q-4 80 36.5 132t103 84t135.5 44t132 12v39q0 76 -39 111.5t-106 35.5q-49 0 -92 -16t-91 -55l-36 63q37 33 94 60.5t131 27.5q111 0 170 -61.5t59 -190.5v-491h-80l-6 59q-25 -23 -69.5 -50.5t-112.5 -27.5q-55 -2 -99 17.5t-75 51.5t-45.5 73t-9.5 82zM156 969 q0 -72 43 -106t102 -34q55 0 100 24t74 58v252q-92 0 -154.5 -19.5t-100.5 -49t-53 -64.5t-11 -61z" />
<glyph unicode="&#xab;" horiz-adv-x="956" d="M78 512l342 408l63 -60l-286 -340l315 -338l-59 -61zM426 512l350 408l62 -60l-297 -340l325 -336l-57 -63z" />
<glyph unicode="&#xac;" d="M74 631v98h876v-555h-96v457h-780z" />
<glyph unicode="&#xad;" horiz-adv-x="598" d="M94 489v109h412v-109h-412z" />
<glyph unicode="&#xae;" horiz-adv-x="1609" d="M94 608q0 154 48 292t140.5 242.5t224.5 166t298 61.5q233 0 409 -127q172 -125 236 -303q66 -184 66 -332q0 -154 -48.5 -293t-140.5 -243.5t-224 -167t-298 -62.5t-298 62.5t-224.5 167t-140.5 244t-48 292.5zM188 608q0 -131 42 -254t121 -217t194 -151.5t260 -57.5 q203 0 354 115q152 119 207 276q55 156 55 289q0 199 -92 365q-92 170 -235 239q-145 74 -289 74q-145 0 -260 -56t-194 -150.5t-121 -217.5t-42 -254zM551 172v889h276q135 0 208 -64.5t73 -177.5q0 -59 -16.5 -102t-46 -72t-68.5 -46t-82 -26l229 -401h-104l-223 395h-158 v-395h-88zM639 649h182q94 0 144.5 39t50.5 131q0 78 -49 120t-138 42h-190v-332z" />
<glyph unicode="&#xaf;" horiz-adv-x="593" d="M10 1243v94h572v-94h-572z" />
<glyph unicode="&#xb0;" horiz-adv-x="702" d="M88 1079q-2 61 25.5 115.5t70.5 93.5t92.5 60.5t92.5 17.5q68 2 121 -27.5t88.5 -73.5t54 -95.5t16.5 -90.5q2 -94 -55 -168q-29 -37 -60.5 -60.5t-62.5 -36.5t-57.5 -17t-44.5 -2q-57 0 -108.5 22.5t-89.5 61.5t-60.5 90t-22.5 110zM176 1079q0 -63 35 -116 q37 -49 78 -65.5t80 -16.5q51 0 90 23.5t63.5 56t34.5 66.5t6 52q0 51 -22.5 89t-53 62.5t-63.5 36t-55 11.5q-82 0 -137.5 -58.5t-55.5 -140.5z" />
<glyph unicode="&#xb1;" d="M74 0v98h876v-98h-876zM74 631v98h391v455h96v-455h389v-98h-389v-457h-96v457h-391z" />
<glyph unicode="&#xb2;" horiz-adv-x="565" d="M63 1280q14 25 87 61q74 37 141 37q106 0 154.5 -52t48.5 -124t-33 -118t-99 -95l-133 -102q-37 -29 -45 -55.5t-8 -61.5h328v-84h-422v80q0 49 15.5 90t66.5 80l121 92q63 47 87.5 81t24.5 85q0 43 -25.5 70.5t-88.5 27.5q-57 0 -103.5 -27.5t-75.5 -58.5z" />
<glyph unicode="&#xb3;" horiz-adv-x="565" d="M53 748l33 77q23 -23 70 -45t106 -22q70 0 112 34.5t42 96.5q0 76 -53.5 109.5t-139.5 33.5q-16 0 -29.5 -1t-25.5 -3v68q31 41 84 90t125 98h-281v86h406v-90q-74 -45 -136.5 -92t-95.5 -88q119 0 179.5 -59.5t60.5 -139.5q0 -98 -66.5 -159.5t-183.5 -61.5 q-78 0 -133 24.5t-74 43.5z" />
<glyph unicode="&#xb4;" horiz-adv-x="593" d="M100 1176l318 284l76 -84l-344 -260z" />
<glyph unicode="&#xb5;" horiz-adv-x="1034" d="M145 -395v1372h101v-651q0 -129 73.5 -193.5t196.5 -64.5q92 0 155.5 39.5t116.5 101.5v768h101v-977h-90l-11 92q-53 -55 -115.5 -85t-166.5 -30q-109 0 -167 31t-93 76v-479h-101z" />
<glyph unicode="&#xb6;" horiz-adv-x="950" d="M72 979q0 80 27.5 150.5t76.5 123t113.5 83t138.5 30.5h119v-1663h-94v889q-121 0 -217 65q-47 33 -79 73t-50.5 82t-26.5 84t-8 83zM717 -297v1663h96v-1663h-96z" />
<glyph unicode="&#xb7;" horiz-adv-x="557" d="M195 758q0 41 24.5 65.5t59.5 24.5t60.5 -24.5t25.5 -65.5q0 -43 -25.5 -67.5t-60.5 -24.5t-59.5 24.5t-24.5 67.5z" />
<glyph unicode="&#xb8;" horiz-adv-x="593" d="M186 -356l99 266h121l-140 -266h-80z" />
<glyph unicode="&#xb9;" horiz-adv-x="565" d="M84 1245l205 125h84v-684h-92v578l-156 -93z" />
<glyph unicode="&#xba;" horiz-adv-x="741" d="M68 1135q-4 84 21.5 154.5t68.5 120.5t99 78t114 23q111 2 186 -75q76 -78 98 -166q10 -43 16.5 -77t4.5 -60q2 -92 -25.5 -165t-71.5 -123t-98.5 -74.5t-109.5 -20.5q-76 0 -132.5 32.5t-94.5 87t-57 123t-19 142.5zM156 1135q0 -98 32 -172q33 -74 80.5 -104t102.5 -30 q57 -4 99 28t68.5 80t38 102.5t9.5 95.5q4 70 -17.5 126t-56.5 96t-74 60.5t-67 14.5q-76 0 -131 -56q-53 -53 -68.5 -119.5t-15.5 -121.5z" />
<glyph unicode="&#xbb;" horiz-adv-x="956" d="M90 856l57 64l383 -392l-350 -407l-61 59l297 342zM444 858l60 62l375 -392l-342 -405l-64 57l287 342z" />
<glyph unicode="&#xbc;" horiz-adv-x="1392" d="M74 57l1210 1319l64 -67l-1210 -1323zM74 1245l205 125h84v-684h-92v578l-156 -93zM807 158v82l340 444h76v-444h86v-82h-86v-158h-90v158h-326zM903 240h230v301z" />
<glyph unicode="&#xbd;" horiz-adv-x="1392" d="M25 57l1210 1319l64 -67l-1210 -1323zM66 1245l205 125h84v-684h-92v578l-156 -93zM854 600q14 25 87 61q74 37 141 37q106 0 154.5 -52t48.5 -124t-33 -118t-99 -95l-133 -102q-37 -29 -45 -55.5t-8 -61.5h328v-84h-422v80q0 49 15.5 90t66.5 80l121 92q63 47 87.5 81 t24.5 85q0 43 -25.5 70.5t-88.5 27.5q-57 0 -103.5 -27.5t-75.5 -58.5z" />
<glyph unicode="&#xbe;" horiz-adv-x="1392" d="M110 748l33 77q23 -23 70 -45t106 -22q70 0 112 34.5t42 96.5q0 76 -53.5 109.5t-139.5 33.5q-16 0 -29.5 -1t-25.5 -3v68q31 41 84 90t125 98h-281v86h406v-90q-74 -45 -136.5 -92t-95.5 -88q119 0 179.5 -59.5t60.5 -139.5q0 -98 -66.5 -159.5t-183.5 -61.5 q-78 0 -133 24.5t-74 43.5zM156 57l1210 1319l64 -67l-1210 -1323zM838 158v82l340 444h76v-444h86v-82h-86v-158h-90v158h-326zM934 240h230v301z" />
<glyph unicode="&#xbf;" horiz-adv-x="698" d="M6 -80q0 100 48 188.5t128 176.5q86 98 103 139q23 51 22 113v53h99v-62q0 -92 -41 -157.5t-95 -128.5q-43 -49 -72.5 -92.5t-48 -81t-26.5 -75.5t-8 -77q0 -104 61.5 -159.5t165.5 -55.5q92 0 153.5 47t110.5 113l66 -66q-53 -78 -138 -134t-196 -56q-160 0 -246 84 t-86 231zM272 918q0 41 23.5 64.5t58.5 23.5t57.5 -24t22.5 -64q0 -41 -22.5 -64t-57.5 -23t-58.5 23t-23.5 64z" />
<glyph unicode="&#xc0;" horiz-adv-x="1091" d="M10 0l484 1366h98l489 -1366h-112l-160 438h-533l-155 -438h-111zM309 541h467l-235 696zM354 1716l76 84l317 -284l-51 -60z" />
<glyph unicode="&#xc1;" horiz-adv-x="1091" d="M10 0l484 1366h98l489 -1366h-112l-160 438h-533l-155 -438h-111zM309 541h467l-235 696zM364 1516l318 284l76 -84l-344 -260z" />
<glyph unicode="&#xc2;" horiz-adv-x="1091" d="M10 0l484 1366h98l489 -1366h-112l-160 438h-533l-155 -438h-111zM279 1503l231 307h64l231 -307l-59 -53l-205 264l-203 -264zM309 541h467l-235 696z" />
<glyph unicode="&#xc3;" horiz-adv-x="1091" d="M10 0l484 1366h98l489 -1366h-112l-160 438h-533l-155 -438h-111zM215 1552q33 88 84 128t119 40q41 0 78 -18.5t74 -44.5q70 -55 114 -55q31 0 60.5 28.5t58.5 100.5l72 -35q-37 -98 -90.5 -139t-108.5 -41q-41 0 -81 20.5t-68 42.5q-84 59 -121 59q-35 0 -63.5 -26.5 t-55.5 -89.5zM309 541h467l-235 696z" />
<glyph unicode="&#xc4;" horiz-adv-x="1091" d="M10 0l484 1366h98l489 -1366h-112l-160 438h-533l-155 -438h-111zM291 1653q0 37 21.5 58.5t52.5 21.5t52.5 -21.5t21.5 -58.5q0 -41 -21.5 -61.5t-52.5 -20.5t-52.5 20.5t-21.5 61.5zM309 541h467l-235 696zM641 1653q0 37 21.5 58.5t52.5 21.5t52.5 -21.5t21.5 -58.5 q0 -41 -21.5 -61.5t-52.5 -20.5t-52.5 20.5t-21.5 61.5z" />
<glyph unicode="&#xc5;" horiz-adv-x="1091" d="M10 0l484 1366h98l489 -1366h-112l-160 438h-533l-155 -438h-111zM309 541h467l-235 696zM346 1636q0 55 19.5 94.5t49.5 64t62.5 35.5t59.5 11q53 0 92 -25.5t62.5 -60.5t33 -69.5t4.5 -49.5q0 -68 -36 -122q-35 -55 -78 -69.5t-78 -10.5q-53 -2 -90 19.5t-60.5 53 t-34 67.5t-6.5 62zM428 1636q0 -59 31 -95t80 -36q51 0 81 36t30 95q0 55 -33 94.5t-78 39.5t-78 -39t-33 -95z" />
<glyph unicode="&#xc6;" horiz-adv-x="1624" d="M-10 0l790 1366h754v-100h-625v-492h453v-100h-453v-574h662v-100h-764v438h-455l-254 -438h-108zM408 541h399v696z" />
<glyph unicode="&#xc7;" horiz-adv-x="1110" d="M102 678q0 174 40 307t111 223t167 137.5t209 47.5q143 0 249.5 -73t161.5 -190l-86 -67q-35 68 -80 112t-91 70.5t-87 36.5t-65 8q-139 0 -242 -90q-98 -92 -137 -233q-37 -141 -37 -291q0 -133 29.5 -243.5t86 -189.5t136.5 -123t180 -44q111 0 193 47t147 133l62 -86 q-35 -43 -103 -98q-55 -43 -140 -70t-167 -27q-127 0 -226.5 49.5t-169 140.5t-105.5 221t-36 292zM483 -356l99 266h121l-140 -266h-80z" />
<glyph unicode="&#xc8;" horiz-adv-x="974" d="M156 0v1366h729v-100h-625v-492h453v-100h-453v-574h662v-100h-766zM301 1716l76 84l317 -284l-51 -60z" />
<glyph unicode="&#xc9;" horiz-adv-x="974" d="M156 0v1366h729v-100h-625v-492h453v-100h-453v-574h662v-100h-766zM346 1516l318 284l76 -84l-344 -260z" />
<glyph unicode="&#xca;" horiz-adv-x="974" d="M156 0v1366h729v-100h-625v-492h453v-100h-453v-574h662v-100h-766zM256 1503l231 307h64l231 -307l-59 -53l-205 264l-203 -264z" />
<glyph unicode="&#xcb;" horiz-adv-x="974" d="M156 0v1366h729v-100h-625v-492h453v-100h-453v-574h662v-100h-766zM280 1653q0 37 21.5 58.5t52.5 21.5t52.5 -21.5t21.5 -58.5q0 -41 -21.5 -61.5t-52.5 -20.5t-52.5 20.5t-21.5 61.5zM630 1653q0 37 21.5 58.5t52.5 21.5t52.5 -21.5t21.5 -58.5q0 -41 -21.5 -61.5 t-52.5 -20.5t-52.5 20.5t-21.5 61.5z" />
<glyph unicode="&#xcc;" horiz-adv-x="417" d="M10 1716l76 84l317 -284l-51 -60zM156 0v1366h106v-1366h-106z" />
<glyph unicode="&#xcd;" horiz-adv-x="417" d="M51 1516l318 284l76 -84l-344 -260zM156 0v1366h106v-1366h-106z" />
<glyph unicode="&#xce;" horiz-adv-x="417" d="M-43 1503l231 307h64l231 -307l-59 -53l-205 264l-203 -264zM156 0v1366h106v-1366h-106z" />
<glyph unicode="&#xcf;" horiz-adv-x="417" d="M-31 1653q0 37 21.5 58.5t52.5 21.5t52.5 -21.5t21.5 -58.5q0 -41 -21.5 -61.5t-52.5 -20.5t-52.5 20.5t-21.5 61.5zM156 0v1366h106v-1366h-106zM319 1653q0 37 21.5 58.5t52.5 21.5t52.5 -21.5t21.5 -58.5q0 -41 -21.5 -61.5t-52.5 -20.5t-52.5 20.5t-21.5 61.5z" />
<glyph unicode="&#xd0;" horiz-adv-x="1185" d="M8 641v100h139v625h320q86 0 164 -14.5t143 -48.5q147 -72 230 -221.5t83 -379.5q0 -285 -106.5 -451.5t-298.5 -221.5q-102 -29 -215 -29h-320v641h-139zM254 100h195q53 0 109 6.5t104 24.5q143 53 229 190.5t86 372.5q0 180 -55.5 302t-159.5 190q-61 41 -140 60.5 t-165 19.5h-203v-525h342v-100h-342v-541z" />
<glyph unicode="&#xd1;" horiz-adv-x="1255" d="M156 0v1366h112l727 -1151v1151h105v-1366h-92l-748 1178v-1178h-104zM327 1552q33 88 84 128t119 40q41 0 78 -18.5t74 -44.5q70 -55 114 -55q31 0 60.5 28.5t58.5 100.5l72 -35q-37 -98 -90.5 -139t-108.5 -41q-41 0 -81 20.5t-68 42.5q-84 59 -121 59 q-35 0 -63.5 -26.5t-55.5 -89.5z" />
<glyph unicode="&#xd2;" horiz-adv-x="1263" d="M102 684q0 215 76 385q37 94 94.5 157.5t122 101.5t128 52.5t110.5 12.5q193 0 315 -123q125 -119 168 -287q45 -160 45 -299q0 -225 -76 -391q-41 -96 -98 -158.5t-120.5 -99.5t-125 -50.5t-108.5 -11.5q-135 0 -234.5 60.5t-166 160t-98.5 227.5t-32 263zM213 684 q0 -170 59 -330q61 -154 158 -217t203 -63q147 0 248 106q104 111 137 252q33 133 33 252q0 182 -58 322q-55 147 -152.5 216.5t-207.5 69.5q-109 0 -188.5 -53t-131 -140t-76 -195.5t-24.5 -219.5zM465 1716l76 84l317 -284l-51 -60z" />
<glyph unicode="&#xd3;" horiz-adv-x="1263" d="M102 684q0 215 76 385q37 94 94.5 157.5t122 101.5t128 52.5t110.5 12.5q193 0 315 -123q125 -119 168 -287q45 -160 45 -299q0 -225 -76 -391q-41 -96 -98 -158.5t-120.5 -99.5t-125 -50.5t-108.5 -11.5q-135 0 -234.5 60.5t-166 160t-98.5 227.5t-32 263zM213 684 q0 -170 59 -330q61 -154 158 -217t203 -63q147 0 248 106q104 111 137 252q33 133 33 252q0 182 -58 322q-55 147 -152.5 216.5t-207.5 69.5q-109 0 -188.5 -53t-131 -140t-76 -195.5t-24.5 -219.5zM456 1516l318 284l76 -84l-344 -260z" />
<glyph unicode="&#xd4;" horiz-adv-x="1263" d="M102 684q0 215 76 385q37 94 94.5 157.5t122 101.5t128 52.5t110.5 12.5q193 0 315 -123q125 -119 168 -287q45 -160 45 -299q0 -225 -76 -391q-41 -96 -98 -158.5t-120.5 -99.5t-125 -50.5t-108.5 -11.5q-135 0 -234.5 60.5t-166 160t-98.5 227.5t-32 263zM213 684 q0 -170 59 -330q61 -154 158 -217t203 -63q147 0 248 106q104 111 137 252q33 133 33 252q0 182 -58 322q-55 147 -152.5 216.5t-207.5 69.5q-109 0 -188.5 -53t-131 -140t-76 -195.5t-24.5 -219.5zM381 1503l231 307h64l231 -307l-59 -53l-205 264l-203 -264z" />
<glyph unicode="&#xd5;" horiz-adv-x="1263" d="M102 684q0 215 76 385q37 94 94.5 157.5t122 101.5t128 52.5t110.5 12.5q193 0 315 -123q125 -119 168 -287q45 -160 45 -299q0 -225 -76 -391q-41 -96 -98 -158.5t-120.5 -99.5t-125 -50.5t-108.5 -11.5q-135 0 -234.5 60.5t-166 160t-98.5 227.5t-32 263zM213 684 q0 -170 59 -330q61 -154 158 -217t203 -63q147 0 248 106q104 111 137 252q33 133 33 252q0 182 -58 322q-55 147 -152.5 216.5t-207.5 69.5q-109 0 -188.5 -53t-131 -140t-76 -195.5t-24.5 -219.5zM313 1552q33 88 84 128t119 40q41 0 78 -18.5t74 -44.5q70 -55 114 -55 q31 0 60.5 28.5t58.5 100.5l72 -35q-37 -98 -90.5 -139t-108.5 -41q-41 0 -81 20.5t-68 42.5q-84 59 -121 59q-35 0 -63.5 -26.5t-55.5 -89.5z" />
<glyph unicode="&#xd6;" horiz-adv-x="1263" d="M102 684q0 215 76 385q37 94 94.5 157.5t122 101.5t128 52.5t110.5 12.5q193 0 315 -123q125 -119 168 -287q45 -160 45 -299q0 -225 -76 -391q-41 -96 -98 -158.5t-120.5 -99.5t-125 -50.5t-108.5 -11.5q-135 0 -234.5 60.5t-166 160t-98.5 227.5t-32 263zM213 684 q0 -170 59 -330q61 -154 158 -217t203 -63q147 0 248 106q104 111 137 252q33 133 33 252q0 182 -58 322q-55 147 -152.5 216.5t-207.5 69.5q-109 0 -188.5 -53t-131 -140t-76 -195.5t-24.5 -219.5zM385 1653q0 37 21.5 58.5t52.5 21.5t52.5 -21.5t21.5 -58.5 q0 -41 -21.5 -61.5t-52.5 -20.5t-52.5 20.5t-21.5 61.5zM735 1653q0 37 21.5 58.5t52.5 21.5t52.5 -21.5t21.5 -58.5q0 -41 -21.5 -61.5t-52.5 -20.5t-52.5 20.5t-21.5 61.5z" />
<glyph unicode="&#xd7;" d="M141 358l305 320l-305 321l68 72l303 -321l305 321l70 -72l-307 -321l307 -320l-70 -71l-305 321l-303 -321z" />
<glyph unicode="&#xd8;" horiz-adv-x="1265" d="M98 18l133 179q-66 100 -96.5 226t-30.5 261q0 215 76 385q37 94 94.5 157.5t122 101.5t128 52.5t110.5 12.5q117 0 207 -45t155 -123l131 178l80 -64l-151 -202q53 -98 79.5 -214t26.5 -239q0 -133 -31.5 -261t-96 -227.5t-165 -161t-235.5 -61.5q-106 0 -190.5 39 t-149.5 105l-121 -162zM215 684q0 -104 21.5 -203.5t68.5 -185.5l623 840q-51 72 -123 114.5t-170 42.5q-109 0 -188.5 -53t-131 -140t-76 -195.5t-24.5 -219.5zM362 207q49 -61 118 -97t155 -36q147 0 248 106q104 111 137 252q33 133 33 252q0 92 -17.5 183t-52.5 171z " />
<glyph unicode="&#xd9;" horiz-adv-x="1210" d="M141 455v911h105v-881q0 -186 92 -297.5t266 -111.5t267.5 108.5t93.5 300.5v881h106v-911q0 -117 -37 -206t-99.5 -150.5t-147.5 -93.5t-181 -32q-98 0 -183 32t-147.5 93.5t-98.5 150.5t-36 206zM413 1716l76 84l317 -284l-51 -60z" />
<glyph unicode="&#xda;" horiz-adv-x="1210" d="M141 455v911h105v-881q0 -186 92 -297.5t266 -111.5t267.5 108.5t93.5 300.5v881h106v-911q0 -117 -37 -206t-99.5 -150.5t-147.5 -93.5t-181 -32q-98 0 -183 32t-147.5 93.5t-98.5 150.5t-36 206zM473 1516l318 284l76 -84l-344 -260z" />
<glyph unicode="&#xdb;" horiz-adv-x="1210" d="M141 455v911h105v-881q0 -186 92 -297.5t266 -111.5t267.5 108.5t93.5 300.5v881h106v-911q0 -117 -37 -206t-99.5 -150.5t-147.5 -93.5t-181 -32q-98 0 -183 32t-147.5 93.5t-98.5 150.5t-36 206zM357 1503l231 307h64l231 -307l-59 -53l-205 264l-203 -264z" />
<glyph unicode="&#xdc;" horiz-adv-x="1210" d="M141 455v911h105v-881q0 -186 92 -297.5t266 -111.5t267.5 108.5t93.5 300.5v881h106v-911q0 -117 -37 -206t-99.5 -150.5t-147.5 -93.5t-181 -32q-98 0 -183 32t-147.5 93.5t-98.5 150.5t-36 206zM362 1653q0 37 21.5 58.5t52.5 21.5t52.5 -21.5t21.5 -58.5 q0 -41 -21.5 -61.5t-52.5 -20.5t-52.5 20.5t-21.5 61.5zM712 1653q0 37 21.5 58.5t52.5 21.5t52.5 -21.5t21.5 -58.5q0 -41 -21.5 -61.5t-52.5 -20.5t-52.5 20.5t-21.5 61.5z" />
<glyph unicode="&#xdd;" horiz-adv-x="1021" d="M10 1366h121l375 -604l389 604h117l-455 -707v-659h-106v657zM430 1516l318 284l76 -84l-344 -260z" />
<glyph unicode="&#xde;" horiz-adv-x="1011" d="M147 0v1366h107v-289h299q199 0 304.5 -101.5t105.5 -299.5q0 -96 -31 -170t-85 -123t-129 -73.5t-163 -24.5h-301v-285h-107zM254 385h301q135 0 214 79t79 214q0 141 -73 220t-222 79h-299v-592z" />
<glyph unicode="&#xdf;" horiz-adv-x="1044" d="M45 887v90h137v43q-2 96 30 168t82 119t111.5 68.5t120.5 17.5q150 0 242 -108.5t92 -307.5v-90h-149q-92 0 -138.5 -40t-46.5 -108q0 -41 14.5 -68.5t41 -48t64.5 -36t87 -31.5q135 -51 189.5 -122t54.5 -185q0 -125 -78 -198t-207 -73q-76 0 -153 23q-70 25 -94.5 42 t-36.5 34l36 90q41 -37 106.5 -67.5t141.5 -30.5q86 0 135.5 47t49.5 129q0 94 -59.5 144t-170.5 93q-100 37 -160.5 93.5t-60.5 162.5q-2 57 24.5 103.5t67.5 77t92.5 46t98.5 13.5h55q-4 162 -67.5 244t-170.5 82q-111 0 -177 -71t-66 -224v-1008h-101v887h-137z" />
<glyph unicode="&#xe0;" horiz-adv-x="897" d="M94 272q0 143 103 230q100 88 233 108q131 20 240 25v39q0 115 -49 174q-55 63 -162 63q-82 0 -148.5 -32.5t-113.5 -67.5l-37 82q16 14 47 32.5t70.5 36t87 28.5t98.5 11q156 0 235 -90q72 -84 72 -237v-674h-90l-6 86q-43 -45 -111 -77t-162 -32q-66 0 -122 19.5 t-97 57.5t-64.5 92.5t-23.5 125.5zM199 270q0 -59 22.5 -99t56 -64.5t71.5 -33.5t67 -5q78 0 143.5 34.5t110.5 83.5v359q-242 -6 -356.5 -72.5t-114.5 -202.5zM264 1376l76 84l317 -284l-51 -60z" />
<glyph unicode="&#xe1;" horiz-adv-x="897" d="M94 272q0 143 103 230q100 88 233 108q131 20 240 25v39q0 115 -49 174q-55 63 -162 63q-82 0 -148.5 -32.5t-113.5 -67.5l-37 82q16 14 47 32.5t70.5 36t87 28.5t98.5 11q156 0 235 -90q72 -84 72 -237v-674h-90l-6 86q-43 -45 -111 -77t-162 -32q-66 0 -122 19.5 t-97 57.5t-64.5 92.5t-23.5 125.5zM199 270q0 -59 22.5 -99t56 -64.5t71.5 -33.5t67 -5q78 0 143.5 34.5t110.5 83.5v359q-242 -6 -356.5 -72.5t-114.5 -202.5zM295 1176l318 284l76 -84l-344 -260z" />
<glyph unicode="&#xe2;" horiz-adv-x="897" d="M94 272q0 143 103 230q100 88 233 108q131 20 240 25v39q0 115 -49 174q-55 63 -162 63q-82 0 -148.5 -32.5t-113.5 -67.5l-37 82q16 14 47 32.5t70.5 36t87 28.5t98.5 11q156 0 235 -90q72 -84 72 -237v-674h-90l-6 86q-43 -45 -111 -77t-162 -32q-66 0 -122 19.5 t-97 57.5t-64.5 92.5t-23.5 125.5zM195 1163l231 307h64l231 -307l-59 -53l-205 264l-203 -264zM199 270q0 -59 22.5 -99t56 -64.5t71.5 -33.5t67 -5q78 0 143.5 34.5t110.5 83.5v359q-242 -6 -356.5 -72.5t-114.5 -202.5z" />
<glyph unicode="&#xe3;" horiz-adv-x="897" d="M94 272q0 143 103 230q100 88 233 108q131 20 240 25v39q0 115 -49 174q-55 63 -162 63q-82 0 -148.5 -32.5t-113.5 -67.5l-37 82q16 14 47 32.5t70.5 36t87 28.5t98.5 11q156 0 235 -90q72 -84 72 -237v-674h-90l-6 86q-43 -45 -111 -77t-162 -32q-66 0 -122 19.5 t-97 57.5t-64.5 92.5t-23.5 125.5zM133 1212q33 88 84 128t119 40q41 0 78 -18.5t74 -44.5q70 -55 114 -55q31 0 60.5 28.5t58.5 100.5l72 -35q-37 -98 -90.5 -139t-108.5 -41q-41 0 -81 20.5t-68 42.5q-84 59 -121 59q-35 0 -63.5 -26.5t-55.5 -89.5zM199 270 q0 -59 22.5 -99t56 -64.5t71.5 -33.5t67 -5q78 0 143.5 34.5t110.5 83.5v359q-242 -6 -356.5 -72.5t-114.5 -202.5z" />
<glyph unicode="&#xe4;" horiz-adv-x="897" d="M94 272q0 143 103 230q100 88 233 108q131 20 240 25v39q0 115 -49 174q-55 63 -162 63q-82 0 -148.5 -32.5t-113.5 -67.5l-37 82q16 14 47 32.5t70.5 36t87 28.5t98.5 11q156 0 235 -90q72 -84 72 -237v-674h-90l-6 86q-43 -45 -111 -77t-162 -32q-66 0 -122 19.5 t-97 57.5t-64.5 92.5t-23.5 125.5zM199 270q0 -59 22.5 -99t56 -64.5t71.5 -33.5t67 -5q78 0 143.5 34.5t110.5 83.5v359q-242 -6 -356.5 -72.5t-114.5 -202.5zM207 1313q0 37 21.5 58.5t52.5 21.5t52.5 -21.5t21.5 -58.5q0 -41 -21.5 -61.5t-52.5 -20.5t-52.5 20.5 t-21.5 61.5zM557 1313q0 37 21.5 58.5t52.5 21.5t52.5 -21.5t21.5 -58.5q0 -41 -21.5 -61.5t-52.5 -20.5t-52.5 20.5t-21.5 61.5z" />
<glyph unicode="&#xe5;" horiz-adv-x="897" d="M94 272q0 143 103 230q100 88 233 108q131 20 240 25v39q0 115 -49 174q-55 63 -162 63q-82 0 -148.5 -32.5t-113.5 -67.5l-37 82q16 14 47 32.5t70.5 36t87 28.5t98.5 11q156 0 235 -90q72 -84 72 -237v-674h-90l-6 86q-43 -45 -111 -77t-162 -32q-66 0 -122 19.5 t-97 57.5t-64.5 92.5t-23.5 125.5zM199 270q0 -59 22.5 -99t56 -64.5t71.5 -33.5t67 -5q78 0 143.5 34.5t110.5 83.5v359q-242 -6 -356.5 -72.5t-114.5 -202.5zM282 1296q0 55 19.5 94.5t49.5 64t62.5 35.5t59.5 11q53 0 92 -25.5t62.5 -60.5t33 -69.5t4.5 -49.5 q0 -68 -36 -122q-35 -55 -78 -69.5t-78 -10.5q-53 -2 -90 19.5t-60.5 53t-34 67.5t-6.5 62zM364 1296q0 -59 31 -95t80 -36q51 0 81 36t30 95q0 55 -33 94.5t-78 39.5t-78 -39t-33 -95z" />
<glyph unicode="&#xe6;" horiz-adv-x="1548" d="M94 281q0 80 34 135t80 90t94 53.5t77 24.5q59 10 121.5 16t128.5 6h65v68q0 53 -16 101t-39 71q-61 66 -174 65q-82 0 -152.5 -32.5t-115.5 -67.5l-37 84q23 16 44 28.5t40 22.5q41 20 106.5 37.5t118.5 17.5q131 0 197.5 -49t101.5 -135q51 92 132 138t185 46 q190 0 287.5 -131t102.5 -354h-684q0 -211 80.5 -329.5t242.5 -118.5q174 0 293 125l31 -93q-27 -27 -72 -55q-39 -25 -111.5 -46.5t-142.5 -21.5q-254 0 -356 201q-39 -104 -132 -152.5t-210 -48.5q-154 0 -237 81t-83 223zM201 279q0 -111 63.5 -161t161.5 -50 q72 -2 124 23.5t85 62t48 77.5t13 70v215h-63q-70 0 -125 -4t-100 -12q-41 -8 -78 -24.5t-65.5 -44.5t-46 -65.5t-17.5 -86.5zM799 606h561q-6 119 -64 191q-29 37 -58.5 60.5t-58 35.5t-53 15t-41.5 3q-109 0 -189.5 -75.5t-96.5 -229.5z" />
<glyph unicode="&#xe7;" horiz-adv-x="897" d="M96 487q0 186 68 308q37 63 82 104t90 63.5t88 30.5t76 8q92 2 172 -43t117.5 -93t44.5 -68l-74 -52q-53 82 -110.5 124t-149.5 42q-98 0 -174 -69q-76 -70 -101.5 -165t-25.5 -188q0 -96 22.5 -172.5t65.5 -132t102.5 -85t132.5 -29.5q76 0 137.5 26.5t126.5 93.5 l39 -88q-43 -45 -120.5 -85t-190.5 -40q-90 0 -167 34t-132 99.5t-87 160t-32 216.5zM362 -356l99 266h121l-140 -266h-80z" />
<glyph unicode="&#xe8;" horiz-adv-x="958" d="M96 489q0 174 62 295q63 123 156.5 170t181.5 47q147 2 241 -94q92 -92 121 -209q27 -109 27 -192h-688q0 -211 82.5 -324.5t244.5 -113.5q174 0 293 125l31 -93q-27 -27 -72 -55q-39 -25 -111.5 -46.5t-142.5 -21.5q-205 0 -315.5 135.5t-110.5 376.5zM205 596h565 q-6 111 -55 188q-49 78 -109.5 102.5t-109.5 24.5q-111 0 -189.5 -74.5t-101.5 -240.5zM307 1376l76 84l317 -284l-51 -60z" />
<glyph unicode="&#xe9;" horiz-adv-x="958" d="M96 489q0 174 62 295q63 123 156.5 170t181.5 47q147 2 241 -94q92 -92 121 -209q27 -109 27 -192h-688q0 -211 82.5 -324.5t244.5 -113.5q174 0 293 125l31 -93q-27 -27 -72 -55q-39 -25 -111.5 -46.5t-142.5 -21.5q-205 0 -315.5 135.5t-110.5 376.5zM205 596h565 q-6 111 -55 188q-49 78 -109.5 102.5t-109.5 24.5q-111 0 -189.5 -74.5t-101.5 -240.5zM333 1176l318 284l76 -84l-344 -260z" />
<glyph unicode="&#xea;" horiz-adv-x="958" d="M96 489q0 174 62 295q63 123 156.5 170t181.5 47q147 2 241 -94q92 -92 121 -209q27 -109 27 -192h-688q0 -211 82.5 -324.5t244.5 -113.5q174 0 293 125l31 -93q-27 -27 -72 -55q-39 -25 -111.5 -46.5t-142.5 -21.5q-205 0 -315.5 135.5t-110.5 376.5zM205 596h565 q-6 111 -55 188q-49 78 -109.5 102.5t-109.5 24.5q-111 0 -189.5 -74.5t-101.5 -240.5zM242 1163l231 307h64l231 -307l-59 -53l-205 264l-203 -264z" />
<glyph unicode="&#xeb;" horiz-adv-x="958" d="M96 489q0 174 62 295q63 123 156.5 170t181.5 47q147 2 241 -94q92 -92 121 -209q27 -109 27 -192h-688q0 -211 82.5 -324.5t244.5 -113.5q174 0 293 125l31 -93q-27 -27 -72 -55q-39 -25 -111.5 -46.5t-142.5 -21.5q-205 0 -315.5 135.5t-110.5 376.5zM205 596h565 q-6 111 -55 188q-49 78 -109.5 102.5t-109.5 24.5q-111 0 -189.5 -74.5t-101.5 -240.5zM252 1313q0 37 21.5 58.5t52.5 21.5t52.5 -21.5t21.5 -58.5q0 -41 -21.5 -61.5t-52.5 -20.5t-52.5 20.5t-21.5 61.5zM602 1313q0 37 21.5 58.5t52.5 21.5t52.5 -21.5t21.5 -58.5 q0 -41 -21.5 -61.5t-52.5 -20.5t-52.5 20.5t-21.5 61.5z" />
<glyph unicode="&#xec;" horiz-adv-x="382" d="M12 1376l76 84l317 -284l-51 -60zM151 0v977h101v-977h-101z" />
<glyph unicode="&#xed;" horiz-adv-x="382" d="M30 1176l318 284l76 -84l-344 -260zM151 0v977h101v-977h-101z" />
<glyph unicode="&#xee;" horiz-adv-x="382" d="M-49 1163l231 307h64l231 -307l-59 -53l-205 264l-203 -264zM151 0v977h101v-977h-101z" />
<glyph unicode="&#xef;" horiz-adv-x="382" d="M-37 1313q0 37 21.5 58.5t52.5 21.5t52.5 -21.5t21.5 -58.5q0 -41 -21.5 -61.5t-52.5 -20.5t-52.5 20.5t-21.5 61.5zM151 0v977h101v-977h-101zM313 1313q0 37 21.5 58.5t52.5 21.5t52.5 -21.5t21.5 -58.5q0 -41 -21.5 -61.5t-52.5 -20.5t-52.5 20.5t-21.5 61.5z" />
<glyph unicode="&#xf0;" horiz-adv-x="1011" d="M96 492q0 178 64 296q31 66 77 109t95 66.5t95 32t77 5.5q86 0 145.5 -18t106.5 -51q-35 80 -90.5 145.5t-118.5 112.5l-80 -115l-57 41l79 115q-72 45 -196 80l26 75q53 -10 107.5 -30.5t108.5 -52.5l79 114l58 -39l-80 -112q94 -61 158.5 -155.5t102.5 -196t52.5 -201 t9.5 -170.5q0 -209 -62 -341t-161 -179q-90 -46 -184 -46q-86 0 -161 32t-131 96.5t-88 160.5t-32 226zM195 492q0 -104 24.5 -183.5t67.5 -132.5t99 -80.5t122 -27.5q76 -4 134 33.5t97 103t58.5 152.5t17.5 182q0 94 -12 168.5t-25 113.5q-51 41 -114.5 65.5t-155.5 24.5 q-137 0 -225 -107.5t-88 -311.5z" />
<glyph unicode="&#xf1;" horiz-adv-x="1013" d="M141 0v977h90l11 -92q53 47 127.5 81.5t173.5 34.5q137 0 217 -54t108 -161q20 -61 21 -176v-610h-103v604q0 100 -18 154q-53 152 -238 151q-88 0 -159.5 -36.5t-128.5 -90.5v-782h-101zM196 1212q33 88 84 128t119 40q41 0 78 -18.5t74 -44.5q70 -55 114 -55 q31 0 60.5 28.5t58.5 100.5l72 -35q-37 -98 -90.5 -139t-108.5 -41q-41 0 -81 20.5t-68 42.5q-84 59 -121 59q-35 0 -63.5 -26.5t-55.5 -89.5z" />
<glyph unicode="&#xf2;" horiz-adv-x="1017" d="M96 496q0 152 60 276q59 123 153 176t199 53q143 0 246 -90q51 -43 84.5 -101t53 -116.5t26 -112t6.5 -89.5q0 -162 -64 -287q-61 -123 -154.5 -175.5t-197.5 -52.5q-147 0 -248 93q-90 80 -127 193.5t-37 232.5zM197 496q0 -80 19.5 -157t58 -137.5t97 -97t136.5 -36.5 q88 -4 149.5 42t98.5 112.5t52 141t13 130.5q4 104 -28.5 186t-81.5 135t-104.5 79t-98.5 17q-113 0 -191 -77q-72 -72 -96 -159t-24 -179zM338 1376l76 84l317 -284l-51 -60z" />
<glyph unicode="&#xf3;" horiz-adv-x="1017" d="M96 496q0 152 60 276q59 123 153 176t199 53q143 0 246 -90q51 -43 84.5 -101t53 -116.5t26 -112t6.5 -89.5q0 -162 -64 -287q-61 -123 -154.5 -175.5t-197.5 -52.5q-147 0 -248 93q-90 80 -127 193.5t-37 232.5zM197 496q0 -80 19.5 -157t58 -137.5t97 -97t136.5 -36.5 q88 -4 149.5 42t98.5 112.5t52 141t13 130.5q4 104 -28.5 186t-81.5 135t-104.5 79t-98.5 17q-113 0 -191 -77q-72 -72 -96 -159t-24 -179zM336 1176l318 284l76 -84l-344 -260z" />
<glyph unicode="&#xf4;" horiz-adv-x="1017" d="M96 496q0 152 60 276q59 123 153 176t199 53q143 0 246 -90q51 -43 84.5 -101t53 -116.5t26 -112t6.5 -89.5q0 -162 -64 -287q-61 -123 -154.5 -175.5t-197.5 -52.5q-147 0 -248 93q-90 80 -127 193.5t-37 232.5zM197 496q0 -80 19.5 -157t58 -137.5t97 -97t136.5 -36.5 q88 -4 149.5 42t98.5 112.5t52 141t13 130.5q4 104 -28.5 186t-81.5 135t-104.5 79t-98.5 17q-113 0 -191 -77q-72 -72 -96 -159t-24 -179zM256 1163l231 307h64l231 -307l-59 -53l-205 264l-203 -264z" />
<glyph unicode="&#xf5;" horiz-adv-x="1017" d="M96 496q0 152 60 276q59 123 153 176t199 53q143 0 246 -90q51 -43 84.5 -101t53 -116.5t26 -112t6.5 -89.5q0 -162 -64 -287q-61 -123 -154.5 -175.5t-197.5 -52.5q-147 0 -248 93q-90 80 -127 193.5t-37 232.5zM196 1214q33 88 84 128t119 40q41 0 78 -18.5t74 -44.5 q70 -55 114 -55q31 0 60.5 28.5t58.5 100.5l72 -35q-37 -98 -90.5 -139t-108.5 -41q-41 0 -81 20.5t-68 42.5q-84 59 -121 59q-35 0 -63.5 -26.5t-55.5 -89.5zM197 496q0 -80 19.5 -157t58 -137.5t97 -97t136.5 -36.5q88 -4 149.5 42t98.5 112.5t52 141t13 130.5 q4 104 -28.5 186t-81.5 135t-104.5 79t-98.5 17q-113 0 -191 -77q-72 -72 -96 -159t-24 -179z" />
<glyph unicode="&#xf6;" horiz-adv-x="1017" d="M96 496q0 152 60 276q59 123 153 176t199 53q143 0 246 -90q51 -43 84.5 -101t53 -116.5t26 -112t6.5 -89.5q0 -162 -64 -287q-61 -123 -154.5 -175.5t-197.5 -52.5q-147 0 -248 93q-90 80 -127 193.5t-37 232.5zM197 496q0 -80 19.5 -157t58 -137.5t97 -97t136.5 -36.5 q88 -4 149.5 42t98.5 112.5t52 141t13 130.5q4 104 -28.5 186t-81.5 135t-104.5 79t-98.5 17q-113 0 -191 -77q-72 -72 -96 -159t-24 -179zM270 1313q0 37 21.5 58.5t52.5 21.5t52.5 -21.5t21.5 -58.5q0 -41 -21.5 -61.5t-52.5 -20.5t-52.5 20.5t-21.5 61.5zM620 1313 q0 37 21.5 58.5t52.5 21.5t52.5 -21.5t21.5 -58.5q0 -41 -21.5 -61.5t-52.5 -20.5t-52.5 20.5t-21.5 61.5z" />
<glyph unicode="&#xf7;" d="M74 631v98h876v-98h-876zM424 319q0 41 26.5 69t63.5 28t63.5 -28t26.5 -69q0 -43 -26.5 -70.5t-63.5 -27.5t-63.5 27.5t-26.5 70.5zM424 1038q0 43 26.5 71t63.5 28t63.5 -28t26.5 -71q0 -41 -26.5 -69.5t-63.5 -28.5t-63.5 28.5t-26.5 69.5z" />
<glyph unicode="&#xf8;" horiz-adv-x="1017" d="M96 496q0 152 60 276q59 123 153 176t199 53q80 0 145.5 -26.5t116.5 -73.5l84 115l70 -53l-99 -129q47 -72 73 -158t26 -184q0 -162 -64 -287q-61 -123 -154.5 -175.5t-197.5 -52.5q-78 0 -140.5 26t-109.5 71l-88 -117l-64 53l95 127q-53 72 -79 166t-26 193zM197 496 q0 -74 16 -145t51 -130l447 602q-39 41 -88.5 64.5t-114.5 23.5q-113 0 -191 -77q-72 -72 -96 -159t-24 -179zM315 152q37 -39 85.5 -61.5t107.5 -22.5q88 -4 149.5 42t98.5 112.5t52 141t13 130.5q0 68 -14 133t-43 123z" />
<glyph unicode="&#xf9;" horiz-adv-x="1011" d="M125 362v615h100v-610q0 -104 21 -152q29 -78 87 -112.5t150 -34.5q88 0 158 36.5t129 90.5v782h100v-977h-92l-8 92q-53 -47 -125 -82t-176 -35q-258 0 -324 213q-20 61 -20 174zM319 1376l76 84l317 -284l-51 -60z" />
<glyph unicode="&#xfa;" horiz-adv-x="1011" d="M125 362v615h100v-610q0 -104 21 -152q29 -78 87 -112.5t150 -34.5q88 0 158 36.5t129 90.5v782h100v-977h-92l-8 92q-53 -47 -125 -82t-176 -35q-258 0 -324 213q-20 61 -20 174zM356 1176l318 284l76 -84l-344 -260z" />
<glyph unicode="&#xfb;" horiz-adv-x="1011" d="M125 362v615h100v-610q0 -104 21 -152q29 -78 87 -112.5t150 -34.5q88 0 158 36.5t129 90.5v782h100v-977h-92l-8 92q-53 -47 -125 -82t-176 -35q-258 0 -324 213q-20 61 -20 174zM248 1163l231 307h64l231 -307l-59 -53l-205 264l-203 -264z" />
<glyph unicode="&#xfc;" horiz-adv-x="1011" d="M125 362v615h100v-610q0 -104 21 -152q29 -78 87 -112.5t150 -34.5q88 0 158 36.5t129 90.5v782h100v-977h-92l-8 92q-53 -47 -125 -82t-176 -35q-258 0 -324 213q-20 61 -20 174zM266 1313q0 37 21.5 58.5t52.5 21.5t52.5 -21.5t21.5 -58.5q0 -41 -21.5 -61.5 t-52.5 -20.5t-52.5 20.5t-21.5 61.5zM616 1313q0 37 21.5 58.5t52.5 21.5t52.5 -21.5t21.5 -58.5q0 -41 -21.5 -61.5t-52.5 -20.5t-52.5 20.5t-21.5 61.5z" />
<glyph unicode="&#xfd;" horiz-adv-x="917" d="M-20 -303h16q129 0 237.5 73.5t165.5 202.5l-381 1004h113l334 -897q86 180 172 411.5t154 485.5h106q-72 -283 -157 -498t-162 -383q-90 -186 -160 -280q-72 -98 -184.5 -153.5t-241.5 -55.5zM329 1176l318 284l76 -84l-344 -260z" />
<glyph unicode="&#xfe;" horiz-adv-x="1003" d="M145 -395v1761h101v-461q43 39 104.5 67.5t165.5 28.5q135 0 232 -79q51 -43 81.5 -98.5t48 -114t23.5 -113.5t6 -98q0 -176 -69 -301q-39 -70 -88.5 -113t-100.5 -66.5t-99 -32t-85 -8.5q-72 0 -126 16.5t-93 39.5v-428h-101zM246 137q37 -29 89 -49t120 -20 q160 0 255 112.5t95 311.5q4 119 -28 200.5t-80 131.5t-103 70.5t-98 16.5q-78 0 -142.5 -31.5t-107.5 -76.5v-666z" />
<glyph unicode="&#xff;" horiz-adv-x="917" d="M-20 -303h16q129 0 237.5 73.5t165.5 202.5l-381 1004h113l334 -897q86 180 172 411.5t154 485.5h106q-72 -283 -157 -498t-162 -383q-90 -186 -160 -280q-72 -98 -184.5 -153.5t-241.5 -55.5zM221 1313q0 37 21.5 58.5t52.5 21.5t52.5 -21.5t21.5 -58.5 q0 -41 -21.5 -61.5t-52.5 -20.5t-52.5 20.5t-21.5 61.5zM571 1313q0 37 21.5 58.5t52.5 21.5t52.5 -21.5t21.5 -58.5q0 -41 -21.5 -61.5t-52.5 -20.5t-52.5 20.5t-21.5 61.5z" />
<glyph unicode="&#x152;" horiz-adv-x="1734" d="M102 684q0 225 91 389q45 82 102 138.5t119.5 91t129 49t134.5 14.5h967v-100h-625v-492h453v-100h-453v-574h661v-100h-1003q-133 0 -239.5 52t-181.5 144.5t-115 217.5t-40 270zM217 684q0 -123 32 -229.5t92 -185.5t145.5 -124t191.5 -45h240v1166h-240 q-158 0 -270 -99q-111 -92 -152 -231q-39 -125 -39 -252z" />
<glyph unicode="&#x153;" horiz-adv-x="1675" d="M96 496q0 162 58 276q59 123 155.5 176t200.5 53q139 0 223 -67.5t137 -179.5q47 119 133.5 183t208.5 64q109 2 183.5 -45t121 -119.5t66 -161.5t19.5 -169h-689q0 -211 83 -324.5t245 -113.5q174 0 293 125l31 -93q-27 -27 -72 -55q-39 -25 -111.5 -46.5t-142.5 -21.5 q-141 0 -238.5 66t-136.5 178q-53 -125 -149 -184.5t-207 -59.5q-147 0 -248 93q-90 80 -127 193.5t-37 232.5zM197 496q0 -80 19.5 -157t58 -137.5t97 -97t136.5 -36.5q88 -2 148.5 43t98.5 111.5t54 141t14 130.5q2 119 -31.5 198.5t-83 128.5t-104.5 70.5t-96 19.5 q-113 0 -191 -77q-72 -72 -96 -159t-24 -179zM922 596h565q-6 119 -62 195q-29 39 -58.5 64.5t-58 38.5t-53 16t-41.5 1q-111 0 -190 -74.5t-102 -240.5z" />
<glyph unicode="&#x178;" horiz-adv-x="1021" d="M10 1366h121l375 -604l389 604h117l-455 -707v-659h-106v657zM266 1653q0 37 21.5 58.5t52.5 21.5t52.5 -21.5t21.5 -58.5q0 -41 -21.5 -61.5t-52.5 -20.5t-52.5 20.5t-21.5 61.5zM616 1653q0 37 21.5 58.5t52.5 21.5t52.5 -21.5t21.5 -58.5q0 -41 -21.5 -61.5 t-52.5 -20.5t-52.5 20.5t-21.5 61.5z" />
<glyph unicode="&#x2c6;" horiz-adv-x="593" d="M33 1163l231 307h64l231 -307l-59 -53l-205 264l-203 -264z" />
<glyph unicode="&#x2dc;" horiz-adv-x="593" d="M-33 1212q33 88 84 128t119 40q41 0 78 -18.5t74 -44.5q70 -55 114 -55q31 0 60.5 28.5t58.5 100.5l72 -35q-37 -98 -90.5 -139t-108.5 -41q-41 0 -81 20.5t-68 42.5q-84 59 -121 59q-35 0 -63.5 -26.5t-55.5 -89.5z" />
<glyph unicode="&#x2000;" horiz-adv-x="920" />
<glyph unicode="&#x2001;" horiz-adv-x="1841" />
<glyph unicode="&#x2002;" horiz-adv-x="920" />
<glyph unicode="&#x2003;" horiz-adv-x="1841" />
<glyph unicode="&#x2004;" horiz-adv-x="613" />
<glyph unicode="&#x2005;" horiz-adv-x="460" />
<glyph unicode="&#x2006;" horiz-adv-x="306" />
<glyph unicode="&#x2007;" horiz-adv-x="306" />
<glyph unicode="&#x2008;" horiz-adv-x="230" />
<glyph unicode="&#x2009;" horiz-adv-x="368" />
<glyph unicode="&#x200a;" horiz-adv-x="102" />
<glyph unicode="&#x2010;" horiz-adv-x="598" d="M94 489v109h412v-109h-412z" />
<glyph unicode="&#x2011;" horiz-adv-x="598" d="M94 489v109h412v-109h-412z" />
<glyph unicode="&#x2012;" horiz-adv-x="598" d="M94 489v109h412v-109h-412z" />
<glyph unicode="&#x2013;" horiz-adv-x="1024" d="M0 489v93h1024v-93h-1024z" />
<glyph unicode="&#x2014;" horiz-adv-x="2048" d="M0 489v93h2048v-93h-2048z" />
<glyph unicode="&#x2018;" horiz-adv-x="339" d="M92 1264q0 47 23.5 80.5t68.5 33.5q39 0 61.5 -24.5t22.5 -63.5t-25.5 -66.5t-62.5 -27.5q4 -35 30 -72t52 -63l-35 -45q-53 43 -94 109.5t-41 138.5z" />
<glyph unicode="&#x2019;" horiz-adv-x="339" d="M82 1290q0 39 22.5 63.5t61.5 24.5q45 0 68.5 -33.5t23.5 -80.5q0 -72 -41 -138.5t-94 -109.5l-35 45q27 27 52.5 63.5t29.5 71.5q-37 0 -62.5 27.5t-25.5 66.5z" />
<glyph unicode="&#x201a;" horiz-adv-x="323" d="M76 96q0 39 22.5 63.5t61.5 24.5q45 0 68.5 -33.5t23.5 -80.5q0 -72 -41 -138.5t-94 -109.5l-35 45q27 27 52.5 63.5t29.5 71.5q-37 0 -62.5 27.5t-25.5 66.5z" />
<glyph unicode="&#x201c;" horiz-adv-x="647" d="M102 1264q0 47 23.5 80.5t68.5 33.5q39 0 61.5 -24.5t22.5 -63.5t-25.5 -66.5t-62.5 -27.5q4 -35 30 -72t52 -63l-35 -45q-53 43 -94 109.5t-41 138.5zM409 1264q0 47 23.5 80.5t68.5 33.5q39 0 61.5 -24.5t22.5 -63.5t-25.5 -66.5t-62.5 -27.5q4 -35 30 -72t52 -63 l-35 -45q-53 43 -94 109.5t-41 138.5z" />
<glyph unicode="&#x201d;" horiz-adv-x="647" d="M92 1290q0 39 22.5 63.5t61.5 24.5q45 0 68.5 -33.5t23.5 -80.5q0 -72 -41 -138.5t-94 -109.5l-35 45q27 27 52.5 63.5t29.5 71.5q-37 0 -62.5 27.5t-25.5 66.5zM399 1290q0 39 22.5 63.5t61.5 24.5q45 0 68.5 -33.5t23.5 -80.5q0 -72 -41 -138.5t-94 -109.5l-35 45 q27 27 52.5 63.5t29.5 71.5q-37 0 -62.5 27.5t-25.5 66.5z" />
<glyph unicode="&#x201e;" horiz-adv-x="630" d="M86 96q0 39 22.5 63.5t61.5 24.5q45 0 68.5 -33.5t23.5 -80.5q0 -72 -41 -138.5t-94 -109.5l-35 45q27 27 52.5 63.5t29.5 71.5q-37 0 -62.5 27.5t-25.5 66.5zM393 96q0 39 22.5 63.5t61.5 24.5q45 0 68.5 -33.5t23.5 -80.5q0 -72 -41 -138.5t-94 -109.5l-35 45 q27 27 52.5 63.5t29.5 71.5q-37 0 -62.5 27.5t-25.5 66.5z" />
<glyph unicode="&#x2022;" horiz-adv-x="968" d="M109 766q0 123 61 219t148.5 137t166.5 41q125 2 220 -80q47 -41 77.5 -85t49 -86t24.5 -80.5t4 -65.5q0 -117 -63 -217q-61 -100 -147.5 -139t-164.5 -39q-80 0 -148.5 30.5t-118.5 84t-79.5 125t-29.5 155.5z" />
<glyph unicode="&#x2026;" horiz-adv-x="1099" d="M88 70q0 41 24.5 65.5t59.5 24.5t60.5 -24.5t25.5 -65.5q0 -43 -25.5 -68t-60.5 -25t-59.5 25t-24.5 68zM446 70q0 41 24.5 65.5t59.5 24.5t60.5 -24.5t25.5 -65.5q0 -43 -25.5 -68t-60.5 -25t-59.5 25t-24.5 68zM807 70q0 41 24.5 65.5t59.5 24.5t60.5 -24.5t25.5 -65.5 q0 -43 -25.5 -68t-60.5 -25t-59.5 25t-24.5 68z" />
<glyph unicode="&#x202f;" horiz-adv-x="368" />
<glyph unicode="&#x2039;" horiz-adv-x="610" d="M78 512l352 408l62 -60l-297 -340l325 -336l-59 -63z" />
<glyph unicode="&#x203a;" horiz-adv-x="610" d="M90 856l57 64l383 -392l-350 -407l-61 59l297 342z" />
<glyph unicode="&#x205f;" horiz-adv-x="460" />
<glyph unicode="&#x20ac;" d="M51 496v98h602v-98h-321q8 -119 35.5 -199t69.5 -129t95.5 -70.5t112.5 -21.5q88 0 147.5 31.5t125.5 107.5l55 -86q-49 -59 -129 -105.5t-197 -46.5q-84 0 -156.5 27t-128 88.5t-92.5 159.5t-49 244h-170zM51 748v98h168q16 272 128 402t284 130q121 0 198.5 -51 t131.5 -121l-70 -73q-53 66 -111.5 106.5t-148.5 40.5q-129 0 -207 -101.5t-94 -332.5h323v-98h-602z" />
<glyph unicode="&#x2122;" horiz-adv-x="1136" d="M37 1290v76h438v-76h-178v-512h-80v512h-180zM537 778v588h94l172 -479l160 479h98v-588h-80v424l-145 -428h-64l-158 424v-420h-77z" />
<glyph unicode="&#xe000;" horiz-adv-x="972" d="M0 0v973h973v-973h-973z" />
<glyph unicode="&#xfb01;" horiz-adv-x="913" d="M45 887v90h139v100q-2 94 28 156.5t75 98.5t97 49.5t99 11.5q92 0 157 -28t97 -52l-32 -86q-43 31 -109 53.5t-119 22.5q-109 0 -150.5 -63.5t-41.5 -160.5v-102h215v-90h-215v-887h-103v887h-137zM670 0v977h102v-977h-102z" />
<glyph unicode="&#xfb02;" horiz-adv-x="985" d="M45 887v90h139v108q0 154 87 231t235 77q76 0 146.5 -15.5t117.5 -34.5v-1150q0 -72 15.5 -102t68.5 -30q41 0 102 31l19 -82q-27 -14 -63.5 -23.5t-71.5 -9.5q-66 -2 -100.5 20.5t-51 53.5t-18.5 63.5t0 53.5v1112q-74 23 -160 23q-119 0 -172 -57.5t-53 -174.5v-94h215 v-90h-215v-887h-103v887h-137z" />
</font>
</defs>
</svg>
